<svg xmlns="http://www.w3.org/2000/svg" viewBox="0 0 800 786">
  <metadata>
    Copyright 2022–Today (c) Giovanni Tramutola (https://github.com/giotramu). All rights reserved.
  </metadata>
  <g id="monogram">
    <rect fill="#05FF" x="200" width="400" height="400" />
    <path clip-rule="evenodd" fill-rule="evenodd" fill="#FFF" d="M434 96H365V96.0049C310.232 96.5414 266 141.105 266 196C266 251.228 310.772 296 366 296C391.905 296 415.509 286.15 433.271 269.991C428.439 302.81 400.161 328 366 328C350.182 328 335.626 322.599 324.074 313.541L298.627 333.898C316.401 350.112 340.046 360 366 360C418.211 360 461.076 319.987 465.605 268.953C483.489 285.727 507.545 296 534 296V264C497.787 264 468.186 235.694 466.116 200H466V128H534V96H466V68C466 52.536 453.464 40 438 40C436.642 40 435.306 40.0967 434 40.2836V96ZM434 128H365.944C328.414 128.03 298 158.463 298 196C298 233.555 328.445 264 366 264C402.213 264 431.814 235.694 433.884 200H434V128Z"/>
  </g>
  <g id="logotype" fill="#FFF">
    <g id="giovanni">
      <path d="M71.392 530.542V554.21H112.52C107.67 570.312 93.702 580.012 72.944 580.012C58.976 580.012 47.724 575.938 39.188 567.596C30.846 559.254 26.578 548.584 26.578 535.78C26.578 522.782 30.652 512.112 38.994 503.77C47.336 495.234 58.006 490.966 71.004 490.966C87.106 490.966 101.074 498.726 107.476 509.784L130.368 496.592C118.728 477.386 96.612 464.97 71.198 464.97C51.022 464.97 34.144 471.76 20.37 485.534C6.79 499.308 0 515.992 0 535.78C0 555.374 6.79 572.058 20.564 585.832C34.338 599.412 51.798 606.202 72.75 606.202C92.344 606.202 108.446 600.188 120.862 588.16C133.278 576.132 139.486 560.418 139.486 541.018V530.542H71.392Z"/>
      <path d="M171.177 494.846C179.713 494.846 186.697 487.862 186.697 479.52C186.697 471.178 179.713 464 171.177 464C162.835 464 155.851 471.178 155.851 479.52C155.851 487.862 162.835 494.846 171.177 494.846ZM183.787 603.486V506.486H158.761V603.486H183.787Z"/>
      <path d="M290.734 591.458C300.628 581.564 305.672 569.342 305.672 554.986C305.672 540.63 300.628 528.602 290.734 518.708C280.84 508.814 268.618 503.77 254.262 503.77C239.906 503.77 227.684 508.814 217.79 518.708C207.896 528.602 203.046 540.63 203.046 554.986C203.046 569.342 207.896 581.564 217.79 591.458C227.684 601.352 239.906 606.202 254.262 606.202C268.618 606.202 280.84 601.352 290.734 591.458ZM235.444 574.192C230.594 569.148 228.072 562.746 228.072 554.986C228.072 547.226 230.594 540.824 235.444 535.78C240.488 530.736 246.696 528.214 254.262 528.214C261.828 528.214 268.036 530.736 273.08 535.78C278.124 540.824 280.646 547.226 280.646 554.986C280.646 562.746 278.124 569.148 273.08 574.192C268.036 579.236 261.828 581.758 254.262 581.758C246.696 581.758 240.488 579.236 235.444 574.192Z"/>
      <path d="M361.043 574.386L337.569 506.486H310.021L346.881 603.486H375.399L412.259 506.486H384.711L361.043 574.386Z"/>
      <path d="M495.654 517.932C488.088 508.426 477.612 503.77 464.032 503.77C451.034 503.77 439.976 508.814 430.664 518.708C421.546 528.602 416.89 540.63 416.89 554.986C416.89 569.342 421.546 581.564 430.664 591.458C439.976 601.352 451.034 606.202 464.032 606.202C477.612 606.202 488.088 601.546 495.654 592.04V603.486H520.68V506.486H495.654V517.932ZM449.482 574.774C444.438 569.536 441.916 562.94 441.916 554.986C441.916 547.032 444.438 540.436 449.482 535.392C454.526 530.154 460.928 527.632 468.688 527.632C476.448 527.632 482.85 530.154 487.894 535.392C493.132 540.436 495.654 547.032 495.654 554.986C495.654 562.94 493.132 569.536 487.894 574.774C482.85 579.818 476.448 582.34 468.688 582.34C460.928 582.34 454.526 579.818 449.482 574.774Z"/>
      <path d="M598.702 503.77C585.51 503.77 575.81 508.232 569.796 517.35V506.486H544.77V603.486H569.796V551.106C569.796 535.004 578.138 527.05 591.136 527.05C602.776 527.05 610.342 534.034 610.342 547.032V603.486H635.368V543.928C635.368 531.318 631.876 521.618 624.892 514.44C618.102 507.262 609.372 503.77 598.702 503.77Z"/>
      <path d="M712.066 503.77C698.874 503.77 689.174 508.232 683.16 517.35V506.486H658.134V603.486H683.16V551.106C683.16 535.004 691.502 527.05 704.5 527.05C716.14 527.05 723.706 534.034 723.706 547.032V603.486H748.732V543.928C748.732 531.318 745.24 521.618 738.256 514.44C731.466 507.262 722.736 503.77 712.066 503.77Z"/>
      <path d="M783.913 494.846C792.449 494.846 799.433 487.862 799.433 479.52C799.433 471.178 792.449 464 783.913 464C775.571 464 768.587 471.178 768.587 479.52C768.587 487.862 775.571 494.846 783.913 494.846ZM796.523 603.486V506.486H771.497V603.486H796.523Z"/>
    </g>
    <g id="tramutola">
      <path d="M0.766113 659.8V675.288H37.0221V783H53.2141V675.288H89.6461V659.8H0.766113Z"/>
      <path d="M107.542 695H92.2297V783H107.542V736.36C107.542 726.68 110.182 719.816 115.638 715.416C121.094 711.016 127.43 709.08 134.998 709.432V693.416C121.798 693.416 112.646 698.872 107.542 709.784V695Z"/>
      <path d="M218.031 710.136C210.463 698.52 199.375 692.712 184.767 692.712C172.447 692.712 161.887 697.288 153.263 706.264C144.639 715.24 140.239 726.152 140.239 739C140.239 751.848 144.639 762.936 153.263 771.912C161.887 780.888 172.447 785.288 184.767 785.288C199.375 785.288 210.463 779.48 218.031 767.864V783H233.343V695H218.031V710.136ZM186.703 770.504C177.903 770.504 170.511 767.512 164.527 761.528C158.543 755.368 155.551 747.976 155.551 739C155.551 730.024 158.543 722.632 164.527 716.648C170.511 710.488 177.903 707.496 186.703 707.496C195.679 707.496 203.071 710.488 209.055 716.648C215.039 722.632 218.031 730.024 218.031 739C218.031 747.976 215.039 755.368 209.055 761.528C203.071 767.512 195.679 770.504 186.703 770.504Z"/>
      <path d="M351.582 692.712C339.262 692.712 330.11 697.64 323.95 707.672C318.494 697.64 309.87 692.712 298.078 692.712C286.638 692.712 277.838 697.464 271.854 706.792V695H256.542V783H271.854V734.072C271.854 716.296 281.534 707.32 294.382 707.32C305.822 707.32 313.038 715.24 313.038 728.792V783H328.35V734.072C328.35 715.944 336.798 707.32 349.998 707.32C361.79 707.32 369.358 715.24 369.358 728.792V783H384.67V728.264C384.67 706.44 371.294 692.712 351.582 692.712Z"/>
      <path d="M466.622 741.64C466.622 761.352 456.414 770.68 441.102 770.68C427.55 770.68 419.278 762.408 419.278 748.152V695H403.966V749.032C403.966 771.384 417.518 785.288 438.11 785.288C450.958 785.288 460.462 780.36 466.622 770.328V783H481.934V695H466.622V741.64Z"/>
      <path d="M553.117 695H529.709V670.36L514.397 674.936V695H496.973V709.784H514.397V757.48C514.397 779.304 526.365 786.52 553.117 783V769.272C537.453 769.976 529.709 771.032 529.709 757.48V709.784H553.117V695Z"/>
      <path d="M641.049 771.912C650.025 762.936 654.601 752.024 654.601 739C654.601 725.976 650.025 715.064 641.049 706.088C632.073 697.112 620.985 692.712 608.137 692.712C595.289 692.712 584.201 697.112 575.225 706.088C566.249 715.064 561.849 725.976 561.849 739C561.849 752.024 566.249 762.936 575.225 771.912C584.201 780.888 595.289 785.288 608.137 785.288C620.985 785.288 632.073 780.888 641.049 771.912ZM608.137 770.328C599.513 770.328 592.121 767.336 586.137 761.352C580.153 755.368 577.161 747.976 577.161 739C577.161 730.024 580.153 722.632 586.137 716.648C592.121 710.664 599.513 707.672 608.137 707.672C616.937 707.672 624.329 710.664 630.313 716.648C636.297 722.632 639.289 730.024 639.289 739C639.289 747.976 636.297 755.368 630.313 761.352C624.329 767.336 616.937 770.328 608.137 770.328Z"/>
      <path d="M687.964 783V654.52H672.652V783H687.964Z"/>
      <path d="M784.188 710.136C776.62 698.52 765.531 692.712 750.923 692.712C738.603 692.712 728.044 697.288 719.419 706.264C710.795 715.24 706.396 726.152 706.396 739C706.396 751.848 710.795 762.936 719.419 771.912C728.044 780.888 738.603 785.288 750.923 785.288C765.531 785.288 776.62 779.48 784.188 767.864V783H799.5V695H784.188V710.136ZM752.859 770.504C744.06 770.504 736.667 767.512 730.683 761.528C724.699 755.368 721.707 747.976 721.707 739C721.707 730.024 724.699 722.632 730.683 716.648C736.667 710.488 744.06 707.496 752.859 707.496C761.836 707.496 769.227 710.488 775.211 716.648C781.195 722.632 784.188 730.024 784.188 739C784.188 747.976 781.195 755.368 775.211 761.528C769.227 767.512 761.836 770.504 752.859 770.504Z"/>
    </g>
  </g>
</svg>


