<svg xmlns="http://www.w3.org/2000/svg" viewBox="0 0 512 512">
  <metadata>
    Copyright 2022–Today (c) Giovanni Tramutola (https://github.com/giotramu). All rights reserved.
  </metadata>
  <style>
    :root {--fill-color: #05F}
    @media (prefers-color-scheme: dark) {:root {--fill-color: #CCC}}
  </style>
  <path
    fill="var(--fill-color)"
    fill-rule="evenodd"
    clip-rule="evenodd"
    d="M310.552 89.6H199.843v.0079C111.969 90.4664 41 161.768 41 249.6c0 88.366 71.835 160 160.448 160 41.563 0 79.435-15.76 107.935-41.613-7.754 52.509-53.125 92.813-107.935 92.813-25.38 0-48.735-8.641-67.27-23.135l-40.829 32.573C121.867 496.18 159.805 512 201.448 512c83.771 0 152.548-64.021 159.813-145.675C389.957 393.164 428.554 409.6 471 409.6v-51.2c-58.102 0-105.597-45.29-108.919-102.4h-.185V140.8H471V89.6H361.896V44.8c0-24.7423-20.114-44.8-44.926-44.8-2.179 0-4.322.154701-6.418.453689V89.6Zm0 51.2H201.357c-60.215.049-109.0137 48.742-109.0137 108.8 0 60.089 48.8477 108.8 109.1047 108.8 58.102 0 105.597-45.29 108.919-102.4h.185V140.8Z"
   />
</svg>
