<svg xmlns="http://www.w3.org/2000/svg" fill="#144BB8" fill-rule="evenodd" viewBox="0 0 500 500">
  <path d="M500 0H0v500h500V0ZM229.372 211.219c20.461 0 37.047-16.543 37.047-36.95V89.0188c.284-.0125.569-.0188.855-.0188 10.546 0 19.094 8.5261 19.094 19.044 0 .094-.001.189-.002.284h.002v9.095h37.048v19.896h-37.048v36.95c0 20.407 16.587 36.95 37.048 36.95v19.897c-14.292 0-27.355-5.247-37.36-13.914-2.997 28.583-27.232 50.864-56.684 50.864-14.924 0-28.507-5.72-38.668-15.082l15.608-12.843c6.328 5.026 14.342 8.029 23.06 8.029 18.141 0 33.236-13.005 36.426-30.177-9.877 8.194-22.575 13.123-36.426 13.123-31.479 0-56.997-25.451-56.997-56.847 0-31.395 25.518-56.846 56.997-56.846v19.896c-20.461 0-37.048 16.543-37.048 36.95 0 20.407 16.587 36.95 37.048 36.95Zm-77.114 141.548h-11.252v-39.713h11.252v39.713Zm-10.454-54.993c-1.276 1.273-1.915 2.865-1.915 4.775 0 1.857.639 3.448 1.915 4.775 1.33 1.273 2.926 1.91 4.788 1.91s3.431-.637 4.708-1.91c1.33-1.327 1.995-2.918 1.995-4.775 0-1.91-.665-3.502-1.995-4.775-1.277-1.327-2.846-1.99-4.708-1.99s-3.458.663-4.788 1.99Zm-34.04 56.107c-8.5119 0-15.587-2.706-21.2259-8.118C80.846 340.245 78 333.295 78 324.912c0-8.489 2.846-15.439 8.5381-20.851 5.6389-5.412 12.847-8.118 21.6249-8.118 6.436 0 12.022 1.406 16.757 4.218v11.301c-5.16-3.183-10.48-4.775-15.959-4.775-5.693 0-10.3206 1.698-13.8848 5.094-3.5642 3.342-5.3463 7.799-5.3463 13.37 0 5.518 1.7289 9.921 5.1867 13.211 3.4578 3.289 7.7404 4.934 12.8474 4.934 4.894 0 8.644-1.22 11.251-3.661v-19.18h11.49v24.592c-2.394 2.547-5.585 4.642-9.575 6.287-4.15 1.698-8.538 2.547-13.166 2.547Zm53.428-21.011c0-5.889 2.075-10.823 6.224-14.802 4.096-4.033 9.389-6.049 15.879-6.049s11.784 2.016 15.88 6.049c4.149 4.032 6.224 8.966 6.224 14.802 0 5.943-2.075 10.93-6.224 14.962-4.15 3.98-9.443 5.969-15.88 5.969-6.436 0-11.729-1.989-15.879-5.969-4.149-4.032-6.224-9.019-6.224-14.962Zm11.092 0c0 3.184 1.037 5.837 3.112 7.959 2.074 2.122 4.708 3.183 7.899 3.183 3.192 0 5.826-1.061 7.9-3.183 2.075-2.175 3.112-4.828 3.112-7.959 0-3.183-1.037-5.809-3.112-7.878-2.074-2.123-4.708-3.184-7.9-3.184-3.191 0-5.825 1.061-7.899 3.184-2.075 2.069-3.112 4.695-3.112 7.878Zm62.916 20.215h-10.214l-17.316-40.031h12.129l10.533 25.785 10.453-25.785h11.73L235.2 353.085Zm61.051-8.993c.958 0 1.729-.159 2.314-.478v8.198c-1.436 1.114-3.458 1.671-6.064 1.671-4.522 0-7.527-1.698-9.017-5.093-3.511 3.607-8.086 5.411-13.725 5.411-4.362 0-7.9-1.22-10.613-3.661-2.713-2.44-4.069-5.65-4.069-9.629 0-4.245 1.543-7.481 4.628-9.71 3.085-2.228 6.783-3.342 11.092-3.342 4.521 0 8.351.822 11.49 2.467v-1.194c0-4.987-3.511-7.481-10.533-7.481-4.309 0-8.325 1.114-12.049 3.343v-9.391c4.043-2.123 8.964-3.184 14.762-3.184 5.745 0 10.32 1.38 13.725 4.139 3.511 2.759 5.266 6.579 5.266 11.46v13.45c0 2.016.931 3.024 2.793 3.024Zm-13.964-3.024v-3.979c-2.341-1.539-5.107-2.308-8.299-2.308-2.394 0-4.309.451-5.745 1.352-1.383.902-2.075 2.176-2.075 3.821 0 1.697.639 2.997 1.915 3.899 1.277.849 3.006 1.274 5.187 1.274 3.937 0 6.942-1.353 9.017-4.059Zm35.314-13.609v25.308H306.35v-39.713h11.251v4.775c3.565-3.873 8.007-5.81 13.326-5.81 4.575 0 8.139 1.459 10.693 4.377 2.553 2.866 3.83 6.871 3.83 12.018v24.353h-11.251v-22.045c0-2.865-.718-4.988-2.155-6.367-1.383-1.38-3.191-2.069-5.426-2.069-1.702 0-3.404.504-5.107 1.512-1.649.955-2.952 2.175-3.91 3.661Zm49.327 0v25.308h-11.251v-39.713h11.251v4.775c3.564-3.873 8.006-5.81 13.326-5.81 4.575 0 8.139 1.459 10.692 4.377 2.554 2.866 3.831 6.871 3.831 12.018v24.353h-11.252v-22.045c0-2.865-.718-4.988-2.154-6.367-1.383-1.38-3.192-2.069-5.426-2.069-1.702 0-3.405.504-5.107 1.512-1.649.955-2.952 2.175-3.91 3.661Zm49.885 25.308h-11.251v-39.713h11.251v39.713Zm-10.453-54.993c-1.277 1.273-1.915 2.865-1.915 4.775 0 1.857.638 3.448 1.915 4.775 1.33 1.273 2.926 1.91 4.788 1.91s3.431-.637 4.708-1.91c1.33-1.327 1.994-2.918 1.994-4.775 0-1.91-.664-3.502-1.994-4.775-1.277-1.327-2.846-1.99-4.708-1.99s-3.458.663-4.788 1.99ZM98.4162 410.181h5.0608v-43.18h16.689v-4.57H81.9328v4.57h16.4834v43.18Zm29.1948 0h-4.925v-32.948h4.925v6.276c1.231-2.137 3.055-3.843 5.471-5.116 2.417-1.319 4.97-1.978 7.661-1.978v4.979c-1.505 0-2.873.205-4.104.614-2.098.546-3.944 1.501-5.54 2.865-1.596 1.319-2.759 2.82-3.488 4.503v20.805Zm31.437.819c-3.511 0-6.498-.955-8.96-2.865-2.416-2.001-3.625-4.684-3.625-8.049 0-3.32 1.277-5.981 3.83-7.982 2.554-1.955 5.791-2.933 9.713-2.933 4.286 0 8.253 1.069 11.901 3.206v-3.274c0-5.503-3.625-8.254-10.875-8.254-3.876 0-7.478 1.114-10.807 3.342v-4.775c3.237-2.001 7.182-3.001 11.833-3.001 4.514 0 8.093 1.068 10.738 3.206 2.69 2.092 4.035 5.093 4.035 9.004V402.2c0 1.274.274 2.274.821 3.002.593.727 1.368 1.091 2.325 1.091.73 0 1.368-.136 1.915-.409v3.82c-.729.5-1.824.75-3.283.75-1.641 0-3.032-.432-4.172-1.296-1.094-.909-1.778-2.228-2.052-3.956-3.328 3.865-7.774 5.798-13.337 5.798Zm1.368-4.434c2.28 0 4.446-.523 6.498-1.569 2.052-1.046 3.716-2.365 4.993-3.956v-4.571c-3.375-2.183-6.954-3.274-10.739-3.274-3.009 0-5.403.591-7.181 1.773-1.733 1.183-2.599 2.797-2.599 4.844 0 2.137.843 3.797 2.53 4.979 1.688 1.183 3.853 1.774 6.498 1.774Zm35.72 3.615h-4.925v-32.948h4.925v4.912c2.736-3.82 6.703-5.73 11.901-5.73 2.69 0 4.947.568 6.771 1.705 1.869 1.137 3.146 2.729 3.83 4.775 1.277-1.955 3.009-3.524 5.198-4.707 2.234-1.182 4.742-1.773 7.524-1.773 3.693 0 6.566 1.159 8.618 3.479 2.051 2.274 3.077 5.525 3.077 9.755v20.532h-4.924V390.74c0-6.458-2.736-9.687-8.208-9.687-2.006 0-4.012.705-6.018 2.115-1.961 1.364-3.443 3.024-4.446 4.98v1.569c.045.591.068 1.046.068 1.364.046.318.069.569.069.75v18.35h-4.925V390.74c0-6.458-2.736-9.687-8.207-9.687-1.916 0-3.876.683-5.882 2.047-1.916 1.273-3.397 2.865-4.446 4.775v22.306Zm84.499-10.709v-22.239h4.925v32.948h-4.925v-5.048c-3.511 3.911-7.911 5.867-13.2 5.867-4.058 0-7.182-1.182-9.37-3.547-2.144-2.41-3.215-5.799-3.215-10.164v-20.056h4.924v18.964c0 6.776 3.124 10.164 9.371 10.164 2.28 0 4.468-.682 6.566-2.046 2.234-1.455 3.875-3.07 4.924-4.843ZM307.298 411c-3.055 0-5.381-.91-6.976-2.729-1.551-1.819-2.326-4.297-2.326-7.435v-33.767h4.925v10.164h11.558v4.298h-11.558v17.804c0 2.638.433 4.457 1.299 5.457.912 1.046 2.394 1.569 4.446 1.569 2.006 0 3.807-.454 5.403-1.364v4.502c-1.413 1.001-3.671 1.501-6.771 1.501Zm19.557-29.469c3.329-3.411 7.615-5.116 12.859-5.116s9.53 1.705 12.858 5.116c3.329 3.32 4.993 7.39 4.993 12.21 0 4.821-1.664 8.891-4.993 12.211-3.374 3.365-7.66 5.048-12.858 5.048s-9.484-1.683-12.859-5.048c-3.328-3.32-4.993-7.39-4.993-12.211 0-4.82 1.665-8.89 4.993-12.21Zm25.649 12.21c0-3.638-1.208-6.707-3.625-9.209-2.417-2.455-5.472-3.683-9.165-3.683-3.694 0-6.749 1.228-9.165 3.683-2.417 2.502-3.625 5.571-3.625 9.209 0 3.593 1.208 6.64 3.625 9.141 2.416 2.456 5.471 3.684 9.165 3.684 3.693 0 6.748-1.228 9.165-3.684 2.417-2.501 3.625-5.548 3.625-9.141ZM375.662 411c-2.28 0-4.126-.659-5.54-1.978-1.368-1.319-2.052-3.366-2.052-6.14v-40.451h4.925v39.292c0 3.229 1.436 4.843 4.309 4.843 1.14 0 2.211-.296 3.214-.887v4.366c-1.185.637-2.804.955-4.856.955Zm23.494 0c-3.511 0-6.498-.955-8.96-2.865-2.417-2.001-3.625-4.684-3.625-8.049 0-3.32 1.277-5.981 3.83-7.982 2.553-1.955 5.791-2.933 9.712-2.933 4.286 0 8.253 1.069 11.901 3.206v-3.274c0-5.503-3.625-8.254-10.875-8.254-3.876 0-7.478 1.114-10.806 3.342v-4.775c3.237-2.001 7.181-3.001 11.832-3.001 4.514 0 8.094 1.068 10.738 3.206 2.691 2.092 4.036 5.093 4.036 9.004V402.2c0 1.274.273 2.274.82 3.002.593.727 1.368 1.091 2.326 1.091.729 0 1.368-.136 1.915-.409v3.82c-.73.5-1.824.75-3.283.75-1.642 0-3.032-.432-4.172-1.296-1.095-.909-1.778-2.228-2.052-3.956-3.329 3.865-7.774 5.798-13.337 5.798Zm1.368-4.434c2.28 0 4.445-.523 6.497-1.569 2.052-1.046 3.716-2.365 4.993-3.956v-4.571c-3.374-2.183-6.953-3.274-10.738-3.274-3.009 0-5.403.591-7.182 1.773-1.732 1.183-2.599 2.797-2.599 4.844 0 2.137.844 3.797 2.531 4.979 1.687 1.183 3.853 1.774 6.498 1.774Z"/>
</svg>
