<svg xmlns="http://www.w3.org/2000/svg" viewBox="0 0 800 786">
  <g id="monogram" fill="#fff">
    <path clip-rule="evenodd" fill-rule="evenodd" d="M199.598 0h400v400h-400V0Zm234 96V40.2836c1.306-.1869 2.642-.2836 4-.2836 15.464 0 28 12.536 28 28v28h68v32h-68v72h.115c2.071 35.694 31.672 64 67.885 64v32c-26.455 0-50.511-10.273-68.395-27.047C460.674 319.987 417.809 360 365.598 360c-25.954 0-49.599-9.888-67.373-26.102l25.447-20.357C335.224 322.599 349.78 328 365.598 328c34.161 0 62.439-25.19 67.271-58.009C415.107 286.15 391.503 296 365.598 296c-55.228 0-100-44.772-100-100 0-54.895 44.232-99.4585 99-99.9951V96h69Zm-68.056 32c-37.53.03-67.944 30.463-67.944 68 0 37.555 30.445 68 68 68 36.213 0 65.814-28.306 67.884-64h.116v-72h-68.056Z"/>
  </g>
  <g id="logotype">
    <g id="giovanni" fill="#fff">
      <path d="M71.392 530.542v23.668h41.128c-4.85 16.102-18.818 25.802-39.576 25.802-13.968 0-25.22-4.074-33.756-12.416-8.342-8.342-12.61-19.012-12.61-31.816 0-12.998 4.074-23.668 12.416-32.01 8.342-8.536 19.012-12.804 32.01-12.804 16.102 0 30.07 7.76 36.472 18.818l22.892-13.192c-11.64-19.206-33.756-31.622-59.17-31.622-20.176 0-37.054 6.79-50.828 20.564C6.79 499.308 0 515.992 0 535.78c0 19.594 6.79 36.278 20.564 50.052 13.774 13.58 31.234 20.37 52.186 20.37 19.594 0 35.696-6.014 48.112-18.042 12.416-12.028 18.624-27.742 18.624-47.142v-10.476H71.392Z"/>
      <path d="M171.177 494.846c8.536 0 15.52-6.984 15.52-15.326S179.713 464 171.177 464c-8.342 0-15.326 7.178-15.326 15.52 0 8.342 6.984 15.326 15.326 15.326Zm12.61 108.64v-97h-25.026v97h25.026Z"/>
      <path d="M290.734 591.458c9.894-9.894 14.938-22.116 14.938-36.472 0-14.356-5.044-26.384-14.938-36.278-9.894-9.894-22.116-14.938-36.472-14.938-14.356 0-26.578 5.044-36.472 14.938-9.894 9.894-14.744 21.922-14.744 36.278 0 14.356 4.85 26.578 14.744 36.472 9.894 9.894 22.116 14.744 36.472 14.744 14.356 0 26.578-4.85 36.472-14.744Zm-55.29-17.266c-4.85-5.044-7.372-11.446-7.372-19.206s2.522-14.162 7.372-19.206c5.044-5.044 11.252-7.566 18.818-7.566 7.566 0 13.774 2.522 18.818 7.566 5.044 5.044 7.566 11.446 7.566 19.206s-2.522 14.162-7.566 19.206c-5.044 5.044-11.252 7.566-18.818 7.566-7.566 0-13.774-2.522-18.818-7.566Z"/>
      <path d="m361.043 574.386-23.474-67.9h-27.548l36.86 97h28.518l36.86-97h-27.548l-23.668 67.9Z"/>
      <path d="M495.654 517.932c-7.566-9.506-18.042-14.162-31.622-14.162-12.998 0-24.056 5.044-33.368 14.938-9.118 9.894-13.774 21.922-13.774 36.278 0 14.356 4.656 26.578 13.774 36.472 9.312 9.894 20.37 14.744 33.368 14.744 13.58 0 24.056-4.656 31.622-14.162v11.446h25.026v-97h-25.026v11.446Zm-46.172 56.842c-5.044-5.238-7.566-11.834-7.566-19.788 0-7.954 2.522-14.55 7.566-19.594 5.044-5.238 11.446-7.76 19.206-7.76s14.162 2.522 19.206 7.76c5.238 5.044 7.76 11.64 7.76 19.594 0 7.954-2.522 14.55-7.76 19.788-5.044 5.044-11.446 7.566-19.206 7.566s-14.162-2.522-19.206-7.566Z"/>
      <path d="M598.702 503.77c-13.192 0-22.892 4.462-28.906 13.58v-10.864H544.77v97h25.026v-52.38c0-16.102 8.342-24.056 21.34-24.056 11.64 0 19.206 6.984 19.206 19.982v56.454h25.026v-59.558c0-12.61-3.492-22.31-10.476-29.488-6.79-7.178-15.52-10.67-26.19-10.67Z"/>
      <path d="M712.066 503.77c-13.192 0-22.892 4.462-28.906 13.58v-10.864h-25.026v97h25.026v-52.38c0-16.102 8.342-24.056 21.34-24.056 11.64 0 19.206 6.984 19.206 19.982v56.454h25.026v-59.558c0-12.61-3.492-22.31-10.476-29.488-6.79-7.178-15.52-10.67-26.19-10.67Z"/>
      <path d="M783.913 494.846c8.536 0 15.52-6.984 15.52-15.326S792.449 464 783.913 464c-8.342 0-15.326 7.178-15.326 15.52 0 8.342 6.984 15.326 15.326 15.326Zm12.61 108.64v-97h-25.026v97h25.026Z"/>
    </g>
    <g id="tramutola" fill="#fff">
      <path d="M.766113 659.8v15.488H37.0221V783h16.192V675.288h36.432V659.8H.766113Z"/>
      <path d="M107.542 695H92.2297v88h15.3123v-46.64c0-9.68 2.64-16.544 8.096-20.944 5.456-4.4 11.792-6.336 19.36-5.984v-16.016c-13.2 0-22.352 5.456-27.456 16.368V695Z"/>
      <path d="M218.031 710.136c-7.568-11.616-18.656-17.424-33.264-17.424-12.32 0-22.88 4.576-31.504 13.552-8.624 8.976-13.024 19.888-13.024 32.736 0 12.848 4.4 23.936 13.024 32.912 8.624 8.976 19.184 13.376 31.504 13.376 14.608 0 25.696-5.808 33.264-17.424V783h15.312v-88h-15.312v15.136Zm-31.328 60.368c-8.8 0-16.192-2.992-22.176-8.976-5.984-6.16-8.976-13.552-8.976-22.528 0-8.976 2.992-16.368 8.976-22.352 5.984-6.16 13.376-9.152 22.176-9.152 8.976 0 16.368 2.992 22.352 9.152 5.984 5.984 8.976 13.376 8.976 22.352s-2.992 16.368-8.976 22.528c-5.984 5.984-13.376 8.976-22.352 8.976Z"/>
      <path d="M351.582 692.712c-12.32 0-21.472 4.928-27.632 14.96-5.456-10.032-14.08-14.96-25.872-14.96-11.44 0-20.24 4.752-26.224 14.08V695h-15.312v88h15.312v-48.928c0-17.776 9.68-26.752 22.528-26.752 11.44 0 18.656 7.92 18.656 21.472V783h15.312v-48.928c0-18.128 8.448-26.752 21.648-26.752 11.792 0 19.36 7.92 19.36 21.472V783h15.312v-54.736c0-21.824-13.376-35.552-33.088-35.552Z"/>
      <path d="M466.622 741.64c0 19.712-10.208 29.04-25.52 29.04-13.552 0-21.824-8.272-21.824-22.528V695h-15.312v54.032c0 22.352 13.552 36.256 34.144 36.256 12.848 0 22.352-4.928 28.512-14.96V783h15.312v-88h-15.312v46.64Z"/>
      <path d="M553.117 695h-23.408v-24.64l-15.312 4.576V695h-17.424v14.784h17.424v47.696c0 21.824 11.968 29.04 38.72 25.52v-13.728c-15.664.704-23.408 1.76-23.408-11.792v-47.696h23.408V695Z"/>
      <path d="M641.049 771.912c8.976-8.976 13.552-19.888 13.552-32.912 0-13.024-4.576-23.936-13.552-32.912-8.976-8.976-20.064-13.376-32.912-13.376-12.848 0-23.936 4.4-32.912 13.376-8.976 8.976-13.376 19.888-13.376 32.912 0 13.024 4.4 23.936 13.376 32.912 8.976 8.976 20.064 13.376 32.912 13.376 12.848 0 23.936-4.4 32.912-13.376Zm-32.912-1.584c-8.624 0-16.016-2.992-22-8.976-5.984-5.984-8.976-13.376-8.976-22.352s2.992-16.368 8.976-22.352c5.984-5.984 13.376-8.976 22-8.976 8.8 0 16.192 2.992 22.176 8.976 5.984 5.984 8.976 13.376 8.976 22.352s-2.992 16.368-8.976 22.352c-5.984 5.984-13.376 8.976-22.176 8.976Z"/>
      <path d="M687.964 783V654.52h-15.312V783h15.312Z"/>
      <path d="M784.188 710.136c-7.568-11.616-18.657-17.424-33.265-17.424-12.32 0-22.879 4.576-31.504 13.552-8.624 8.976-13.023 19.888-13.023 32.736 0 12.848 4.399 23.936 13.023 32.912 8.625 8.976 19.184 13.376 31.504 13.376 14.608 0 25.697-5.808 33.265-17.424V783H799.5v-88h-15.312v15.136Zm-31.329 60.368c-8.799 0-16.192-2.992-22.176-8.976-5.984-6.16-8.976-13.552-8.976-22.528 0-8.976 2.992-16.368 8.976-22.352 5.984-6.16 13.377-9.152 22.176-9.152 8.977 0 16.368 2.992 22.352 9.152 5.984 5.984 8.977 13.376 8.977 22.352s-2.993 16.368-8.977 22.528c-5.984 5.984-13.375 8.976-22.352 8.976Z"/>
    </g>
  </g>
</svg>
