<svg xmlns="http://www.w3.org/2000/svg"  fill="#144BB8" fill-rule="evenodd" viewBox="0 0 1000 500">
  <path d="M1000 0H0v500h1000V0ZM185.748 299.286c30.782 0 55.736-24.944 55.736-55.715V115.028c.427-.019.856-.028 1.287-.028 15.864 0 28.725 12.856 28.725 28.714v.113l-.001.117c0 .066-.001.133-.002.199h.003v13.714h55.737v30h-55.737v55.714c0 30.771 24.954 55.715 55.737 55.715v30c-21.502 0-41.155-7.911-56.206-20.98C266.518 351.405 230.058 385 185.748 385c-22.451 0-42.887-8.625-58.172-22.741l23.481-19.364c9.519 7.577 21.576 12.105 34.691 12.105 27.292 0 50.003-19.609 54.802-45.501-14.86 12.356-33.963 19.787-54.802 19.787-47.357 0-85.748-38.376-85.748-85.715 0-47.338 38.391-85.714 85.748-85.714v30c-30.782 0-55.736 24.944-55.736 55.714 0 30.771 24.954 55.715 55.736 55.715Zm308.44-56.572h-16.927v-59.88h16.927v59.88Zm-15.726-82.92c-1.921 1.92-2.881 4.32-2.881 7.2 0 2.8.96 5.2 2.881 7.2 2 1.92 4.401 2.88 7.203 2.88 2.801 0 5.162-.96 7.082-2.88 2.001-2 3.002-4.4 3.002-7.2 0-2.88-1.001-5.28-3.002-7.2-1.92-2-4.281-3-7.082-3-2.802 0-5.203 1-7.203 3Zm-51.213 84.6c-12.805 0-23.449-4.08-31.932-12.24-8.564-8.32-12.845-18.8-12.845-31.44 0-12.8 4.281-23.28 12.845-31.44 8.483-8.16 19.327-12.24 32.532-12.24 9.684 0 18.088 2.12 25.21 6.36v17.04c-7.763-4.8-15.766-7.2-24.009-7.2-8.563 0-15.526 2.56-20.888 7.68-5.362 5.04-8.043 11.76-8.043 20.16 0 8.32 2.601 14.96 7.803 19.92 5.202 4.96 11.644 7.44 19.327 7.44 7.363 0 13.005-1.84 16.927-5.52v-28.92h17.287v37.08c-3.602 3.84-8.404 7-14.406 9.48-6.242 2.56-12.845 3.84-19.808 3.84Zm80.38-31.68c0-8.88 3.122-16.32 9.364-22.32 6.163-6.08 14.126-9.12 23.89-9.12 9.763 0 17.727 3.04 23.889 9.12 6.243 6.08 9.364 13.52 9.364 22.32 0 8.96-3.121 16.48-9.364 22.56-6.242 6-14.206 9-23.889 9-9.684 0-17.647-3-23.89-9-6.242-6.08-9.364-13.6-9.364-22.56Zm16.687 0c0 4.8 1.561 8.8 4.682 12 3.121 3.2 7.083 4.8 11.885 4.8 4.801 0 8.763-1.6 11.884-4.8 3.122-3.28 4.682-7.28 4.682-12 0-4.8-1.56-8.76-4.682-11.88-3.121-3.2-7.083-4.8-11.884-4.8-4.802 0-8.764 1.6-11.885 4.8-3.121 3.12-4.682 7.08-4.682 11.88Zm94.654 30.48h-15.366l-26.051-60.36h18.248l15.846 38.88 15.726-38.88h17.647l-26.05 60.36Zm91.848-13.56c1.441 0 2.601-.24 3.481-.72v12.36c-2.16 1.68-5.202 2.52-9.123 2.52-6.803 0-11.325-2.56-13.565-7.68-5.283 5.44-12.165 8.16-20.649 8.16-6.562 0-11.884-1.84-15.966-5.52-4.082-3.68-6.122-8.52-6.122-14.52 0-6.4 2.321-11.28 6.962-14.64 4.642-3.36 10.204-5.04 16.687-5.04 6.803 0 12.565 1.24 17.287 3.72v-1.8c0-7.52-5.282-11.28-15.846-11.28-6.483 0-12.525 1.68-18.128 5.04v-14.16c6.083-3.2 13.486-4.8 22.209-4.8 8.644 0 15.526 2.08 20.648 6.24 5.282 4.16 7.923 9.92 7.923 17.28v20.28c0 3.04 1.401 4.56 4.202 4.56Zm-21.008-4.56v-6c-3.522-2.32-7.683-3.48-12.485-3.48-3.601 0-6.483.68-8.643 2.04-2.081 1.36-3.122 3.28-3.122 5.76 0 2.56.961 4.52 2.881 5.88 1.921 1.28 4.522 1.92 7.804 1.92 5.922 0 10.444-2.04 13.565-6.12Zm53.128-20.52v38.16h-16.926v-59.88h16.926v7.2c5.362-5.84 12.045-8.76 20.048-8.76 6.883 0 12.245 2.2 16.087 6.6 3.841 4.32 5.762 10.36 5.762 18.12v36.72h-16.927v-33.24c0-4.32-1.08-7.52-3.241-9.6-2.081-2.08-4.802-3.12-8.163-3.12-2.561 0-5.122.76-7.683 2.28-2.481 1.44-4.442 3.28-5.883 5.52Zm74.209 0v38.16h-16.926v-59.88h16.926v7.2c5.362-5.84 12.045-8.76 20.048-8.76 6.883 0 12.245 2.2 16.087 6.6 3.841 4.32 5.762 10.36 5.762 18.12v36.72h-16.927v-33.24c0-4.32-1.08-7.52-3.241-9.6-2.081-2.08-4.802-3.12-8.163-3.12-2.561 0-5.122.76-7.683 2.28-2.481 1.44-4.442 3.28-5.883 5.52Zm75.05 38.16H875.27v-59.88h16.927v59.88Zm-15.727-82.92c-1.92 1.92-2.881 4.32-2.881 7.2 0 2.8.961 5.2 2.881 7.2 2.001 1.92 4.402 2.88 7.203 2.88s5.162-.96 7.083-2.88c2.001-2 3.001-4.4 3.001-7.2 0-2.88-1-5.28-3.001-7.2-1.921-2-4.282-3-7.083-3s-5.202 1-7.203 3ZM413.187 329.286h7.614v-65.109h25.107v-6.891h-57.52v6.891h24.799v65.109Zm43.921 0h-7.409v-49.68h7.409v9.463c1.852-3.223 4.596-5.795 8.232-7.715 3.635-1.988 7.477-2.983 11.524-2.983v7.509c-2.264 0-4.322.309-6.174.926-3.155.823-5.933 2.263-8.334 4.32-2.401 1.988-4.151 4.251-5.248 6.788v31.372Zm47.296 1.234c-5.282 0-9.775-1.44-13.48-4.32-3.636-3.017-5.453-7.063-5.453-12.137 0-5.006 1.92-9.017 5.762-12.034 3.841-2.949 8.712-4.423 14.611-4.423 6.449 0 12.417 1.611 17.905 4.834v-4.937c0-8.297-5.454-12.446-16.361-12.446-5.831 0-11.25 1.68-16.258 5.04v-7.2c4.87-3.017 10.804-4.526 17.801-4.526 6.792 0 12.177 1.612 16.155 4.835 4.048 3.154 6.071 7.68 6.071 13.577v20.468c0 1.92.412 3.429 1.235 4.526.892 1.097 2.058 1.646 3.499 1.646 1.097 0 2.057-.206 2.881-.617v5.76c-1.098.754-2.744 1.131-4.939 1.131-2.47 0-4.562-.651-6.277-1.954-1.647-1.372-2.676-3.36-3.087-5.966-5.008 5.829-11.696 8.743-20.065 8.743Zm2.058-6.686c3.43 0 6.688-.788 9.775-2.365 3.087-1.578 5.591-3.566 7.512-5.966v-6.892c-5.077-3.291-10.462-4.937-16.155-4.937-4.528 0-8.129.892-10.805 2.675-2.606 1.782-3.91 4.217-3.91 7.302 0 3.223 1.269 5.726 3.807 7.509 2.539 1.783 5.797 2.674 9.776 2.674Zm53.738 5.452h-7.408v-49.68h7.408v7.405c4.116-5.76 10.084-8.64 17.904-8.64 4.048 0 7.443.858 10.187 2.572 2.813 1.714 4.734 4.114 5.762 7.2 1.921-2.949 4.528-5.314 7.821-7.097 3.361-1.783 7.134-2.675 11.319-2.675 5.556 0 9.878 1.749 12.965 5.246 3.087 3.429 4.63 8.332 4.63 14.709v30.96h-7.409v-29.315c0-9.737-4.116-14.605-12.347-14.605-3.019 0-6.037 1.063-9.055 3.188-2.95 2.057-5.18 4.56-6.689 7.509v2.366c.069.891.103 1.577.103 2.057.069.48.103.857.103 1.131v27.669h-7.409v-29.315c0-9.737-4.115-14.605-12.347-14.605-2.881 0-5.831 1.028-8.849 3.085-2.882 1.92-5.111 4.32-6.689 7.2v33.635Zm127.125-16.149v-33.531h7.408v49.68h-7.408v-7.612c-5.282 5.897-11.902 8.846-19.86 8.846-6.105 0-10.804-1.783-14.097-5.349-3.224-3.634-4.836-8.742-4.836-15.325v-30.24h7.409V308.2c0 10.217 4.699 15.326 14.097 15.326 3.43 0 6.722-1.029 9.878-3.086 3.361-2.194 5.831-4.629 7.409-7.303Zm40.112 17.383c-4.596 0-8.094-1.371-10.495-4.114-2.333-2.743-3.499-6.48-3.499-11.212V264.28h7.409v15.326h17.389v6.48h-17.389v26.845c0 3.978.651 6.72 1.955 8.229 1.372 1.577 3.601 2.366 6.688 2.366 3.018 0 5.728-.686 8.129-2.057v6.788c-2.127 1.509-5.522 2.263-10.187 2.263Zm29.423-44.434c5.008-5.143 11.456-7.715 19.345-7.715 7.889 0 14.337 2.572 19.345 7.715 5.008 5.005 7.511 11.143 7.511 18.411 0 7.269-2.503 13.406-7.511 18.412-5.076 5.074-11.525 7.611-19.345 7.611-7.82 0-14.268-2.537-19.345-7.611-5.007-5.006-7.511-11.143-7.511-18.412 0-7.268 2.504-13.406 7.511-18.411Zm38.587 18.411c0-5.486-1.818-10.114-5.454-13.886-3.635-3.702-8.231-5.554-13.788-5.554-5.556 0-10.152 1.852-13.788 5.554-3.636 3.772-5.454 8.4-5.454 13.886 0 5.417 1.818 10.012 5.454 13.783 3.636 3.703 8.232 5.554 13.788 5.554 5.557 0 10.153-1.851 13.788-5.554 3.636-3.771 5.454-8.366 5.454-13.783Zm34.841 26.023c-3.43 0-6.209-.994-8.335-2.983-2.058-1.988-3.087-5.074-3.087-9.257v-60.994h7.408v59.245c0 4.869 2.161 7.303 6.483 7.303 1.715 0 3.327-.445 4.836-1.337v6.583c-1.783.96-4.219 1.44-7.305 1.44Zm35.344 0c-5.282 0-9.775-1.44-13.48-4.32-3.635-3.017-5.453-7.063-5.453-12.137 0-5.006 1.921-9.017 5.762-12.034 3.842-2.949 8.712-4.423 14.612-4.423 6.448 0 12.416 1.611 17.904 4.834v-4.937c0-8.297-5.454-12.446-16.361-12.446-5.831 0-11.25 1.68-16.258 5.04v-7.2c4.871-3.017 10.805-4.526 17.802-4.526 6.791 0 12.176 1.612 16.155 4.835 4.047 3.154 6.07 7.68 6.07 13.577v20.468c0 1.92.412 3.429 1.235 4.526.892 1.097 2.058 1.646 3.499 1.646 1.097 0 2.058-.206 2.881-.617v5.76c-1.098.754-2.744 1.131-4.939 1.131-2.47 0-4.562-.651-6.277-1.954-1.646-1.372-2.675-3.36-3.087-5.966-5.008 5.829-11.696 8.743-20.065 8.743Zm2.058-6.686c3.43 0 6.688-.788 9.775-2.365 3.087-1.578 5.591-3.566 7.512-5.966v-6.892c-5.076-3.291-10.461-4.937-16.155-4.937-4.528 0-8.129.892-10.804 2.675-2.607 1.782-3.911 4.217-3.911 7.302 0 3.223 1.27 5.726 3.808 7.509 2.538 1.783 5.796 2.674 9.775 2.674Z"/>
</svg>
