<svg xmlns="http://www.w3.org/2000/svg" fill="none" viewBox="0 0 1000 500">
  <path fill="#0072ff" d="M421.4 329.102h-7.605V264.05h-24.767v-6.886h57.448v6.886H421.4v65.052zM457.661 329.102h-7.399v-49.637h7.399v9.455c1.85-3.22 4.591-5.79 8.222-7.708 3.631-1.987 7.468-2.98 11.51-2.98v7.502c-2.261 0-4.316.308-6.166.925-3.152.822-5.926 2.261-8.324 4.316-2.398 1.987-4.145 4.248-5.242 6.783v31.344zM506.954 323.656c3.425 0 6.68-.788 9.763-2.364 3.083-1.576 5.584-3.563 7.502-5.961v-6.885c-5.07-3.289-10.448-4.933-16.135-4.933-4.522 0-8.119.891-10.791 2.672-2.603 1.781-3.905 4.213-3.905 7.297 0 3.22 1.268 5.72 3.803 7.502 2.535 1.781 5.789 2.672 9.763 2.672zm-2.056 6.68c-5.275 0-9.763-1.439-13.462-4.317-3.632-3.014-5.447-7.056-5.447-12.126 0-5.002 1.918-9.01 5.755-12.024 3.837-2.946 8.701-4.419 14.593-4.419 6.44 0 12.401 1.61 17.882 4.83v-4.933c0-8.29-5.447-12.435-16.34-12.435-5.824 0-11.236 1.678-16.238 5.035v-7.193c4.865-3.015 10.791-4.522 17.779-4.522 6.783 0 12.161 1.61 16.135 4.83 4.042 3.151 6.063 7.673 6.063 13.565v20.451c0 1.919.411 3.426 1.234 4.522.89 1.097 2.055 1.645 3.494 1.645 1.096 0 2.055-.206 2.877-.617v5.755c-1.096.754-2.74 1.131-4.933 1.131-2.466 0-4.556-.651-6.269-1.953-1.644-1.37-2.672-3.357-3.083-5.961-5.001 5.824-11.681 8.736-20.04 8.736zM560.625 329.102h-7.399v-49.637h7.399v7.399c4.111-5.755 10.071-8.632 17.882-8.632 4.042 0 7.433.856 10.174 2.569 2.809 1.713 4.727 4.111 5.755 7.194 1.918-2.946 4.522-5.31 7.81-7.091 3.358-1.782 7.126-2.672 11.305-2.672 5.55 0 9.866 1.747 12.949 5.241 3.083 3.426 4.625 8.324 4.625 14.696v30.933h-7.4v-29.289c0-9.729-4.111-14.593-12.332-14.593-3.015 0-6.029 1.062-9.044 3.186-2.946 2.055-5.172 4.556-6.68 7.502v2.364c.069.89.103 1.575.103 2.055.069.48.103.856.103 1.131v27.644h-7.4v-29.289c0-9.729-4.11-14.593-12.332-14.593-2.877 0-5.823 1.028-8.838 3.083-2.878 1.918-5.104 4.316-6.68 7.194v33.605zM687.591 312.968v-33.503h7.399v49.637h-7.399v-7.604c-5.276 5.892-11.887 8.838-19.835 8.838-6.097 0-10.791-1.782-14.079-5.344-3.22-3.632-4.83-8.736-4.83-15.313v-30.214h7.399v28.57c0 10.208 4.693 15.312 14.079 15.312 3.426 0 6.715-1.027 9.866-3.083 3.357-2.192 5.824-4.624 7.4-7.296zM727.653 330.336c-4.59 0-8.085-1.371-10.483-4.111-2.329-2.741-3.494-6.475-3.494-11.202v-50.871h7.4v15.313h17.368v6.474h-17.368v26.823c0 3.974.651 6.714 1.952 8.222 1.371 1.575 3.597 2.363 6.68 2.363 3.015 0 5.721-.685 8.119-2.055v6.783c-2.124 1.507-5.515 2.261-10.174 2.261zM757.039 285.939c5.002-5.138 11.442-7.707 19.321-7.707 7.879 0 14.319 2.569 19.32 7.707 5.002 5.002 7.503 11.134 7.503 18.396 0 7.262-2.501 13.394-7.503 18.396-5.069 5.07-11.51 7.605-19.32 7.605-7.811 0-14.251-2.535-19.321-7.605-5.001-5.002-7.502-11.134-7.502-18.396 0-7.262 2.501-13.394 7.502-18.396zm38.539 18.396c0-5.481-1.816-10.106-5.447-13.874-3.631-3.699-8.222-5.549-13.771-5.549-5.55 0-10.14 1.85-13.771 5.549-3.631 3.768-5.447 8.393-5.447 13.874 0 5.413 1.816 10.003 5.447 13.771 3.631 3.7 8.221 5.55 13.771 5.55 5.549 0 10.14-1.85 13.771-5.55 3.631-3.768 5.447-8.358 5.447-13.771zM830.375 330.336c-3.426 0-6.201-.994-8.325-2.981-2.055-1.986-3.083-5.07-3.083-9.249v-60.942h7.4v59.195c0 4.864 2.158 7.297 6.474 7.297 1.713 0 3.323-.446 4.83-1.336v6.577c-1.781.959-4.213 1.439-7.296 1.439zM867.73 323.656c3.426 0 6.68-.788 9.764-2.364 3.083-1.576 5.583-3.563 7.502-5.961v-6.885c-5.07-3.289-10.448-4.933-16.135-4.933-4.522 0-8.119.891-10.791 2.672-2.603 1.781-3.905 4.213-3.905 7.297 0 3.22 1.267 5.72 3.802 7.502 2.535 1.781 5.79 2.672 9.763 2.672zm-2.055 6.68c-5.275 0-9.763-1.439-13.463-4.317-3.631-3.014-5.446-7.056-5.446-12.126 0-5.002 1.918-9.01 5.755-12.024 3.836-2.946 8.701-4.419 14.593-4.419 6.44 0 12.401 1.61 17.882 4.83v-4.933c0-8.29-5.447-12.435-16.341-12.435-5.823 0-11.236 1.678-16.237 5.035v-7.193c4.864-3.015 10.791-4.522 17.779-4.522 6.783 0 12.161 1.61 16.135 4.83 4.042 3.151 6.063 7.673 6.063 13.565v20.451c0 1.919.411 3.426 1.233 4.522.891 1.097 2.056 1.645 3.494 1.645 1.097 0 2.056-.206 2.878-.617v5.755c-1.096.754-2.741 1.131-4.933 1.131-2.466 0-4.556-.651-6.269-1.953-1.644-1.37-2.672-3.357-3.083-5.961-5.001 5.824-11.681 8.736-20.04 8.736zM427.84 244.284c-12.789 0-23.42-4.077-31.892-12.23-8.553-8.313-12.829-18.784-12.829-31.413 0-12.789 4.276-23.26 12.829-31.413 8.472-8.153 19.303-12.23 32.492-12.23 9.671 0 18.064 2.119 25.178 6.355v17.025c-7.753-4.796-15.746-7.194-23.979-7.194-8.553 0-15.507 2.558-20.862 7.674-5.356 5.036-8.034 11.75-8.034 20.143 0 8.313 2.598 14.947 7.794 19.903 5.195 4.955 11.63 7.433 19.303 7.433 7.354 0 12.989-1.838 16.906-5.515v-28.895h17.265v37.048c-3.597 3.837-8.393 6.994-14.388 9.472-6.234 2.558-12.829 3.837-19.783 3.837zM494.695 242.605H477.79v-59.829h16.905v59.829zm-18.584-75.655c0-2.878.959-5.276 2.878-7.194 1.998-1.998 4.396-2.997 7.193-2.997 2.798 0 5.156.999 7.074 2.997 1.999 1.918 2.998 4.316 2.998 7.194 0 2.797-.999 5.195-2.998 7.194-1.918 1.918-4.276 2.877-7.074 2.877-2.797 0-5.195-.959-7.193-2.877-1.919-1.999-2.878-4.397-2.878-7.194zM524.786 212.631c0 4.796 1.558 8.792 4.676 11.989 3.117 3.198 7.074 4.796 11.87 4.796 4.795 0 8.752-1.598 11.869-4.796 3.118-3.277 4.676-7.273 4.676-11.989 0-4.796-1.558-8.753-4.676-11.87-3.117-3.197-7.074-4.796-11.869-4.796-4.796 0-8.753 1.599-11.87 4.796-3.118 3.117-4.676 7.074-4.676 11.87zm-16.666 0c0-8.873 3.117-16.306 9.352-22.301 6.155-6.075 14.108-9.112 23.86-9.112 9.751 0 17.704 3.037 23.859 9.112 6.235 6.075 9.352 13.508 9.352 22.301 0 8.952-3.117 16.466-9.352 22.54-6.235 5.995-14.188 8.993-23.859 8.993-9.672 0-17.625-2.998-23.86-8.993-6.235-6.074-9.352-13.588-9.352-22.54zM619.321 243.085h-15.347l-26.018-60.309h18.225l15.826 38.847 15.707-38.847h17.625l-26.018 60.309zM711.055 229.536c1.438 0 2.597-.24 3.477-.719v12.349c-2.159 1.679-5.196 2.518-9.113 2.518-6.794 0-11.31-2.558-13.548-7.673-5.275 5.435-12.15 8.153-20.622 8.153-6.555 0-11.87-1.839-15.947-5.516-4.076-3.676-6.114-8.512-6.114-14.507 0-6.395 2.318-11.27 6.954-14.628 4.636-3.357 10.191-5.035 16.665-5.035 6.795 0 12.55 1.239 17.266 3.717v-1.799c0-7.514-5.276-11.27-15.827-11.27-6.474 0-12.509 1.678-18.104 5.035v-14.147c6.074-3.198 13.468-4.796 22.181-4.796 8.632 0 15.506 2.078 20.622 6.234 5.275 4.157 7.913 9.912 7.913 17.265v20.263c0 3.038 1.399 4.556 4.197 4.556zm-20.982-4.556v-5.995c-3.517-2.318-7.674-3.477-12.47-3.477-3.597 0-6.474.68-8.632 2.039-2.079 1.358-3.118 3.277-3.118 5.755 0 2.557.96 4.516 2.878 5.875 1.918 1.278 4.516 1.918 7.793 1.918 5.915 0 10.431-2.038 13.549-6.115zM743.135 204.478v38.127h-16.906v-59.829h16.906v7.194c5.355-5.835 12.029-8.752 20.023-8.752 6.874 0 12.229 2.198 16.066 6.594 3.836 4.316 5.755 10.351 5.755 18.104v36.689h-16.906v-33.212c0-4.316-1.079-7.513-3.237-9.591-2.078-2.079-4.796-3.118-8.153-3.118-2.558 0-5.116.76-7.673 2.278-2.478 1.439-4.437 3.278-5.875 5.516zM817.251 204.478v38.127h-16.906v-59.829h16.906v7.194c5.355-5.835 12.03-8.752 20.023-8.752 6.874 0 12.229 2.198 16.066 6.594 3.837 4.316 5.755 10.351 5.755 18.104v36.689H842.19v-33.212c0-4.316-1.08-7.513-3.238-9.591-2.078-2.079-4.796-3.118-8.153-3.118-2.558 0-5.115.76-7.673 2.278-2.478 1.439-4.436 3.278-5.875 5.516zM892.206 242.605h-16.905v-59.829h16.905v59.829zm-18.584-75.655c0-2.878.959-5.276 2.878-7.194 1.998-1.998 4.396-2.997 7.194-2.997 2.797 0 5.155.999 7.074 2.997 1.998 1.918 2.997 4.316 2.997 7.194 0 2.797-.999 5.195-2.997 7.194-1.919 1.918-4.277 2.877-7.074 2.877-2.798 0-5.196-.959-7.194-2.877-1.919-1.999-2.878-4.397-2.878-7.194zM242.308 243.461c0 30.744-24.923 55.667-55.667 55.667-30.744 0-55.667-24.923-55.667-55.667 0-30.743 24.923-55.666 55.667-55.666V157.82c-47.298 0-85.641 38.343-85.641 85.641 0 47.299 38.343 85.641 85.641 85.641 20.813 0 39.892-7.424 54.733-19.769-4.793 25.87-27.475 45.462-54.733 45.462-13.098 0-25.14-4.524-34.648-12.095l-23.452 19.348c15.267 14.103 35.677 22.721 58.1 22.721 44.254 0 80.669-33.566 85.172-76.628 15.032 13.057 34.661 20.961 56.136 20.961v-29.974c-30.744 0-55.667-24.923-55.667-55.667v-55.666h55.667V157.82h-55.667v-14.13c0-15.845-12.845-28.69-28.69-28.69-.43 0-.859.009-1.284.028v128.433z"/>
</svg>
