<svg xmlns="http://www.w3.org/2000/svg" fill="#001133" viewBox="0 0 500 500">
  <path d="M266.419 174.269c0 20.407-16.586 36.95-37.047 36.95s-37.048-16.543-37.048-36.95c0-20.407 16.587-36.95 37.048-36.95v-19.896c-31.479 0-56.997 25.451-56.997 56.846 0 31.396 25.518 56.847 56.997 56.847 13.851 0 26.549-4.929 36.426-13.123-3.19 17.172-18.285 30.177-36.426 30.177-8.718 0-16.732-3.003-23.06-8.029l-15.608 12.843c10.161 9.362 23.744 15.082 38.668 15.082 29.452 0 53.687-22.281 56.684-50.864 10.005 8.667 23.068 13.914 37.36 13.914v-19.897c-20.461 0-37.048-16.543-37.048-36.95v-36.95h37.048v-19.896h-37.048v-9.095h-.002c.001-.095.002-.19.002-.284 0-10.5179-8.548-19.044-19.094-19.044-.286 0-.571.0063-.855.0187v85.2503ZM141.006 352.767h11.252v-39.713h-11.252v39.713ZM141.804 297.774c-1.276 1.273-1.915 2.865-1.915 4.775 0 1.857.639 3.448 1.915 4.775 1.33 1.273 2.926 1.91 4.788 1.91s3.431-.637 4.708-1.91c1.33-1.327 1.995-2.918 1.995-4.775 0-1.91-.665-3.502-1.995-4.775-1.277-1.327-2.846-1.99-4.708-1.99s-3.458.663-4.788 1.99ZM86.5381 345.763c5.6389 5.412 12.714 8.118 21.2259 8.118 4.628 0 9.016-.849 13.166-2.547 3.99-1.645 7.181-3.74 9.575-6.287v-24.592h-11.49v19.18c-2.607 2.441-6.357 3.661-11.251 3.661-5.107 0-9.3896-1.645-12.8474-4.934-3.4578-3.29-5.1867-7.693-5.1867-13.211 0-5.571 1.7821-10.028 5.3463-13.37 3.5642-3.396 8.1918-5.094 13.8848-5.094 5.479 0 10.799 1.592 15.959 4.775v-11.301c-4.735-2.812-10.321-4.218-16.757-4.218-8.7779 0-15.986 2.706-21.6249 8.118C80.846 309.473 78 316.423 78 324.912c0 8.383 2.846 15.333 8.5381 20.851Z"/>
  <path d="M161.192 332.87c0-5.889 2.075-10.823 6.224-14.802 4.096-4.033 9.389-6.049 15.879-6.049s11.784 2.016 15.88 6.049c4.149 4.032 6.224 8.966 6.224 14.802 0 5.943-2.075 10.93-6.224 14.962-4.15 3.98-9.443 5.969-15.88 5.969-6.436 0-11.729-1.989-15.879-5.969-4.149-4.032-6.224-9.019-6.224-14.962Zm11.092 0c0 3.184 1.037 5.837 3.112 7.959 2.074 2.122 4.708 3.183 7.899 3.183 3.192 0 5.826-1.061 7.9-3.183 2.075-2.175 3.112-4.828 3.112-7.959 0-3.183-1.037-5.809-3.112-7.878-2.074-2.123-4.708-3.184-7.9-3.184-3.191 0-5.825 1.061-7.899 3.184-2.075 2.069-3.112 4.695-3.112 7.878Z"/>
  <path d="M224.986 353.085H235.2l17.315-40.031h-11.73l-10.453 25.785-10.533-25.785H207.67l17.316 40.031Z"/>
  <path d="M296.251 344.092c.958 0 1.729-.159 2.314-.478v8.198c-1.436 1.114-3.458 1.671-6.064 1.671-4.522 0-7.528-1.698-9.017-5.093-3.511 3.607-8.086 5.411-13.725 5.411-4.362 0-7.9-1.22-10.613-3.661-2.713-2.44-4.069-5.65-4.069-9.629 0-4.245 1.543-7.481 4.628-9.71 3.085-2.228 6.783-3.342 11.092-3.342 4.521 0 8.351.822 11.49 2.467v-1.194c0-4.987-3.511-7.481-10.533-7.481-4.309 0-8.325 1.114-12.049 3.343v-9.391c4.043-2.123 8.964-3.184 14.762-3.184 5.745 0 10.32 1.38 13.725 4.139 3.511 2.759 5.266 6.579 5.266 11.46v13.45c0 2.016.931 3.024 2.793 3.024Zm-13.964-3.024v-3.979c-2.341-1.539-5.107-2.308-8.299-2.308-2.394 0-4.309.451-5.745 1.352-1.383.902-2.075 2.176-2.075 3.821 0 1.697.639 2.997 1.916 3.899 1.276.849 3.005 1.274 5.186 1.274 3.937 0 6.942-1.353 9.017-4.059Z"/>
  <path d="M317.601 352.767v-25.308c.958-1.486 2.261-2.706 3.91-3.661 1.703-1.008 3.405-1.512 5.107-1.512 2.235 0 4.043.689 5.426 2.069 1.437 1.379 2.155 3.502 2.155 6.367v22.045h11.251v-24.353c0-5.147-1.277-9.152-3.83-12.018-2.554-2.918-6.118-4.377-10.693-4.377-5.319 0-9.761 1.937-13.326 5.81v-4.775H306.35v39.713h11.251ZM366.928 327.459v25.308h-11.251v-39.713h11.251v4.775c3.564-3.873 8.006-5.81 13.326-5.81 4.575 0 8.139 1.459 10.692 4.377 2.554 2.866 3.831 6.871 3.831 12.018v24.353h-11.252v-22.045c0-2.865-.718-4.988-2.154-6.367-1.383-1.38-3.192-2.069-5.426-2.069-1.702 0-3.405.504-5.107 1.512-1.649.955-2.952 2.175-3.91 3.661ZM405.562 352.767h11.251v-39.713h-11.251v39.713ZM406.36 297.774c-1.277 1.273-1.915 2.865-1.915 4.775 0 1.857.638 3.448 1.915 4.775 1.33 1.273 2.926 1.91 4.788 1.91s3.431-.637 4.708-1.91c1.33-1.327 1.994-2.918 1.994-4.775 0-1.91-.664-3.502-1.994-4.775-1.277-1.327-2.846-1.99-4.708-1.99s-3.458.663-4.788 1.99ZM103.477 410.181h-5.0608v-43.18H81.9328v-4.57h38.2332v4.57h-16.689v43.18ZM127.611 410.181h-4.925v-32.948h4.925v6.276c1.231-2.137 3.055-3.843 5.471-5.116 2.417-1.319 4.97-1.978 7.661-1.978v4.979c-1.505 0-2.873.205-4.104.614-2.098.546-3.944 1.501-5.54 2.865-1.596 1.319-2.759 2.82-3.488 4.503v20.805Z"/>
  <path d="M150.088 408.135c2.462 1.91 5.449 2.865 8.96 2.865 5.563 0 10.009-1.933 13.337-5.798.274 1.728.958 3.047 2.052 3.956 1.14.864 2.531 1.296 4.172 1.296 1.459 0 2.554-.25 3.283-.75v-3.82c-.547.273-1.185.409-1.915.409-.957 0-1.732-.364-2.325-1.091-.547-.728-.821-1.728-.821-3.002v-13.575c0-3.911-1.345-6.912-4.035-9.004-2.645-2.138-6.224-3.206-10.738-3.206-4.651 0-8.596 1-11.833 3.001v4.775c3.329-2.228 6.931-3.342 10.807-3.342 7.25 0 10.875 2.751 10.875 8.254v3.274c-3.648-2.137-7.615-3.206-11.901-3.206-3.922 0-7.159.978-9.713 2.933-2.553 2.001-3.83 4.662-3.83 7.982 0 3.365 1.209 6.048 3.625 8.049Zm16.826-3.138c-2.052 1.046-4.218 1.569-6.498 1.569-2.645 0-4.81-.591-6.498-1.774-1.687-1.182-2.53-2.842-2.53-4.979 0-2.047.866-3.661 2.599-4.844 1.778-1.182 4.172-1.773 7.181-1.773 3.785 0 7.364 1.091 10.739 3.274v4.571c-1.277 1.591-2.941 2.91-4.993 3.956Z"/>
  <path d="M196.136 410.181h-4.925v-32.948h4.925v4.912c2.736-3.82 6.703-5.73 11.901-5.73 2.69 0 4.947.568 6.771 1.705 1.869 1.137 3.146 2.729 3.83 4.775 1.277-1.955 3.009-3.524 5.198-4.707 2.234-1.182 4.742-1.773 7.524-1.773 3.693 0 6.566 1.159 8.618 3.479 2.051 2.274 3.077 5.525 3.077 9.755v20.532h-4.924V390.74c0-6.458-2.736-9.687-8.208-9.687-2.006 0-4.012.705-6.018 2.115-1.961 1.364-3.443 3.024-4.446 4.98v1.569c.045.591.068 1.046.068 1.364.046.318.069.569.069.75v18.35h-4.925V390.74c0-6.458-2.736-9.687-8.207-9.687-1.915 0-3.876.683-5.882 2.047-1.916 1.273-3.397 2.865-4.446 4.775v22.306ZM280.635 377.233v22.239c-1.049 1.773-2.69 3.388-4.924 4.843-2.098 1.364-4.286 2.046-6.566 2.046-6.247 0-9.371-3.388-9.371-10.164v-18.964h-4.924v20.056c0 4.365 1.071 7.754 3.215 10.164 2.188 2.365 5.312 3.547 9.37 3.547 5.289 0 9.689-1.956 13.2-5.867v5.048h4.925v-32.948h-4.925ZM307.298 411c-3.055 0-5.381-.91-6.976-2.729-1.551-1.819-2.326-4.297-2.326-7.435v-33.767h4.925v10.164h11.558v4.298h-11.558v17.804c0 2.638.433 4.457 1.299 5.457.912 1.046 2.394 1.569 4.446 1.569 2.006 0 3.807-.454 5.403-1.364v4.502c-1.413 1.001-3.671 1.501-6.771 1.501Z"/>
  <path d="M339.714 376.415c-5.244 0-9.53 1.705-12.859 5.116-3.328 3.32-4.993 7.39-4.993 12.21 0 4.821 1.665 8.891 4.993 12.211 3.375 3.365 7.661 5.048 12.859 5.048s9.484-1.683 12.858-5.048c3.329-3.32 4.993-7.39 4.993-12.211 0-4.82-1.664-8.89-4.993-12.21-3.328-3.411-7.614-5.116-12.858-5.116Zm9.165 8.117c2.417 2.502 3.625 5.571 3.625 9.209 0 3.593-1.208 6.64-3.625 9.141-2.417 2.456-5.472 3.684-9.165 3.684-3.694 0-6.749-1.228-9.165-3.684-2.417-2.501-3.625-5.548-3.625-9.141 0-3.638 1.208-6.707 3.625-9.209 2.416-2.455 5.471-3.683 9.165-3.683 3.693 0 6.748 1.228 9.165 3.683Z"/>
  <path d="M375.662 411c-2.28 0-4.126-.659-5.54-1.978-1.368-1.319-2.052-3.366-2.052-6.14v-40.451h4.925v39.292c0 3.229 1.436 4.843 4.309 4.843 1.14 0 2.211-.296 3.214-.887v4.366c-1.185.637-2.804.955-4.856.955Z"/>
  <path d="M390.196 408.135c2.462 1.91 5.449 2.865 8.96 2.865 5.563 0 10.008-1.933 13.337-5.798.274 1.728.957 3.047 2.052 3.956 1.14.864 2.53 1.296 4.172 1.296 1.459 0 2.553-.25 3.283-.75v-3.82c-.547.273-1.186.409-1.915.409-.958 0-1.733-.364-2.326-1.091-.547-.728-.82-1.728-.82-3.002v-13.575c0-3.911-1.345-6.912-4.036-9.004-2.644-2.138-6.224-3.206-10.738-3.206-4.651 0-8.595 1-11.832 3.001v4.775c3.328-2.228 6.93-3.342 10.806-3.342 7.25 0 10.875 2.751 10.875 8.254v3.274c-3.648-2.137-7.615-3.206-11.901-3.206-3.921 0-7.159.978-9.712 2.933-2.553 2.001-3.83 4.662-3.83 7.982 0 3.365 1.208 6.048 3.625 8.049Zm16.825-3.138c-2.052 1.046-4.217 1.569-6.497 1.569-2.645 0-4.811-.591-6.498-1.774-1.687-1.182-2.531-2.842-2.531-4.979 0-2.047.867-3.661 2.599-4.844 1.779-1.182 4.173-1.773 7.182-1.773 3.785 0 7.364 1.091 10.738 3.274v4.571c-1.277 1.591-2.941 2.91-4.993 3.956Z"/>
</svg>
