<svg xmlns="http://www.w3.org/2000/svg" viewBox="0 0 500 500">
  <path fill="#0072ff" d="M93.255 421.498h-5.4144v-46.315H70.2071v-4.902h40.9009v4.902H93.255v46.315zM119.072 421.498h-5.268v-35.34h5.268v6.732c1.317-2.293 3.268-4.122 5.853-5.488 2.585-1.415 5.317-2.122 8.195-2.122v5.341c-1.61 0-3.073.22-4.39.659-2.244.585-4.219 1.61-5.927 3.073-1.707 1.414-2.951 3.024-3.731 4.829v22.316zM154.166 417.62c2.439 0 4.756-.561 6.951-1.683 2.195-1.122 3.975-2.536 5.341-4.243v-4.903c-3.609-2.341-7.439-3.512-11.487-3.512-3.22 0-5.78.634-7.683 1.903-1.853 1.268-2.78 3-2.78 5.195 0 2.292.902 4.073 2.707 5.341 1.805 1.268 4.122 1.902 6.951 1.902zm-1.463 4.756c-3.756 0-6.951-1.024-9.585-3.073-2.586-2.146-3.878-5.024-3.878-8.634 0-3.561 1.366-6.414 4.097-8.56 2.732-2.098 6.195-3.147 10.39-3.147 4.585 0 8.829 1.147 12.731 3.439v-3.512c0-5.902-3.878-8.853-11.634-8.853-4.146 0-7.999 1.195-11.56 3.585v-5.122c3.463-2.146 7.683-3.219 12.658-3.219 4.829 0 8.658 1.146 11.487 3.439 2.878 2.244 4.317 5.463 4.317 9.658v14.561c0 1.365.293 2.438.878 3.219.634.78 1.464 1.171 2.488 1.171.78 0 1.463-.147 2.049-.439v4.097c-.781.537-1.951.805-3.512.805-1.756 0-3.244-.464-4.464-1.39-1.17-.976-1.902-2.391-2.195-4.244-3.561 4.146-8.316 6.219-14.267 6.219zM192.378 421.498h-5.268v-35.34h5.268v5.268c2.927-4.097 7.17-6.146 12.731-6.146 2.878 0 5.292.61 7.244 1.829 2 1.22 3.365 2.927 4.097 5.122 1.366-2.097 3.219-3.78 5.561-5.049 2.39-1.268 5.073-1.902 8.048-1.902 3.951 0 7.024 1.244 9.219 3.732 2.195 2.439 3.293 5.926 3.293 10.463v22.023h-5.268v-20.853c0-6.926-2.927-10.389-8.78-10.389-2.147 0-4.293.756-6.439 2.268-2.098 1.463-3.683 3.243-4.756 5.341v1.683c.049.634.073 1.122.073 1.463.049.342.073.61.073.805v19.682h-5.268v-20.853c0-6.926-2.926-10.389-8.78-10.389-2.049 0-4.146.731-6.292 2.195-2.049 1.365-3.634 3.073-4.756 5.121v23.926zM282.773 410.011v-23.853h5.268v35.34h-5.268v-5.414c-3.756 4.195-8.464 6.292-14.122 6.292-4.341 0-7.682-1.268-10.024-3.805-2.292-2.585-3.439-6.219-3.439-10.902v-21.511h5.268v20.341c0 7.268 3.342 10.902 10.024 10.902 2.439 0 4.781-.732 7.024-2.195 2.391-1.561 4.147-3.293 5.269-5.195zM311.295 422.376c-3.268 0-5.755-.975-7.463-2.927-1.658-1.951-2.487-4.609-2.487-7.975v-36.218h5.268v10.902h12.365v4.61h-12.365v19.096c0 2.83.463 4.781 1.39 5.854.975 1.122 2.561 1.683 4.756 1.683 2.146 0 4.073-.488 5.78-1.464v4.829c-1.512 1.074-3.927 1.61-7.244 1.61zM332.217 390.768c3.561-3.659 8.146-5.488 13.756-5.488 5.609 0 10.195 1.829 13.755 5.488 3.561 3.561 5.342 7.926 5.342 13.097 0 5.17-1.781 9.536-5.342 13.097-3.609 3.609-8.194 5.414-13.755 5.414s-10.146-1.805-13.756-5.414c-3.56-3.561-5.341-7.927-5.341-13.097 0-5.171 1.781-9.536 5.341-13.097zm27.438 13.097c0-3.903-1.292-7.195-3.878-9.878-2.585-2.634-5.853-3.951-9.804-3.951-3.951 0-7.219 1.317-9.805 3.951-2.585 2.683-3.877 5.975-3.877 9.878 0 3.853 1.292 7.121 3.877 9.804 2.586 2.634 5.854 3.951 9.805 3.951 3.951 0 7.219-1.317 9.804-3.951 2.586-2.683 3.878-5.951 3.878-9.804zM384.429 422.376c-2.438 0-4.414-.707-5.926-2.122-1.464-1.414-2.195-3.609-2.195-6.585v-43.388h5.268v42.144c0 3.464 1.536 5.195 4.609 5.195 1.22 0 2.366-.317 3.439-.951v4.683c-1.268.683-3 1.024-5.195 1.024zM411.025 417.62c2.439 0 4.756-.561 6.951-1.683 2.195-1.122 3.976-2.536 5.341-4.243v-4.903c-3.609-2.341-7.438-3.512-11.487-3.512-3.219 0-5.78.634-7.682 1.903-1.854 1.268-2.781 3-2.781 5.195 0 2.292.903 4.073 2.707 5.341 1.805 1.268 4.122 1.902 6.951 1.902zm-1.463 4.756c-3.756 0-6.951-1.024-9.585-3.073-2.585-2.146-3.878-5.024-3.878-8.634 0-3.561 1.366-6.414 4.097-8.56 2.732-2.098 6.195-3.147 10.39-3.147 4.586 0 8.829 1.147 12.731 3.439v-3.512c0-5.902-3.877-8.853-11.633-8.853-4.146 0-8 1.195-11.561 3.585v-5.122c3.464-2.146 7.683-3.219 12.658-3.219 4.829 0 8.659 1.146 11.488 3.439 2.878 2.244 4.317 5.463 4.317 9.658v14.561c0 1.365.292 2.438.878 3.219.634.78 1.463 1.171 2.487 1.171.781 0 1.464-.147 2.049-.439v4.097c-.78.537-1.951.805-3.512.805-1.756 0-3.244-.464-4.463-1.39-1.171-.976-1.903-2.391-2.195-4.244-3.561 4.146-8.317 6.219-14.268 6.219zM97.8402 361.11c-9.1054 0-16.6742-2.902-22.7064-8.707C69.0446 346.485 66 339.03 66 330.038c0-9.105 3.0446-16.56 9.1338-22.364 6.0322-5.805 13.7433-8.707 23.1332-8.707 6.886 0 12.861 1.508 17.926 4.524v12.121c-5.52-3.414-11.211-5.122-17.0724-5.122-6.0892 0-11.0402 1.822-14.8531 5.464-3.8128 3.585-5.7192 8.365-5.7192 14.341 0 5.918 1.8495 10.641 5.5485 14.17 3.6991 3.528 8.2802 5.292 13.7434 5.292 5.2358 0 9.2478-1.309 12.0358-3.927v-20.572h12.292v26.377c-2.56 2.732-5.975 4.98-10.243 6.744-4.439 1.821-9.134 2.731-14.0848 2.731zM145.438 359.915h-12.036v-42.596h12.036v42.596zm-13.231-53.863c0-2.049.683-3.756 2.049-5.122 1.423-1.423 3.13-2.134 5.122-2.134 1.991 0 3.67.711 5.036 2.134 1.423 1.366 2.134 3.073 2.134 5.122 0 1.991-.711 3.699-2.134 5.121-1.366 1.366-3.045 2.049-5.036 2.049-1.992 0-3.699-.683-5.122-2.049-1.366-1.422-2.049-3.13-2.049-5.121zM166.862 338.575c0 3.414 1.109 6.26 3.329 8.536 2.219 2.276 5.036 3.414 8.451 3.414 3.414 0 6.231-1.138 8.451-3.414 2.219-2.333 3.329-5.179 3.329-8.536 0-3.415-1.11-6.232-3.329-8.451-2.22-2.277-5.037-3.415-8.451-3.415-3.415 0-6.232 1.138-8.451 3.415-2.22 2.219-3.329 5.036-3.329 8.451zm-11.866 0c0-6.317 2.22-11.61 6.659-15.878 4.381-4.325 10.044-6.487 16.987-6.487 6.942 0 12.605 2.162 16.987 6.487 4.439 4.325 6.658 9.618 6.658 15.878 0 6.373-2.219 11.723-6.658 16.048-4.439 4.268-10.101 6.402-16.987 6.402-6.886 0-12.549-2.134-16.987-6.402-4.439-4.325-6.659-9.675-6.659-16.048zM234.167 360.257h-10.926l-18.524-42.938h12.975l11.268 27.658 11.183-27.658h12.548l-18.524 42.938zM299.478 350.611c1.024 0 1.85-.171 2.476-.512v8.792c-1.537 1.195-3.699 1.793-6.488 1.793-4.837 0-8.052-1.822-9.646-5.464-3.756 3.87-8.65 5.805-14.682 5.805-4.667 0-8.451-1.309-11.353-3.927-2.903-2.617-4.354-6.06-4.354-10.329 0-4.552 1.65-8.024 4.951-10.414 3.301-2.39 7.256-3.585 11.865-3.585 4.838 0 8.935.882 12.293 2.646v-1.28c0-5.35-3.756-8.024-11.268-8.024-4.61 0-8.906 1.195-12.89 3.585v-10.073c4.325-2.276 9.589-3.414 15.792-3.414 6.146 0 11.04 1.479 14.682 4.439 3.756 2.959 5.634 7.056 5.634 12.292v14.426c0 2.163.996 3.244 2.988 3.244zm-14.938-3.244v-4.268c-2.504-1.65-5.464-2.476-8.878-2.476-2.561 0-4.61.484-6.146 1.452-1.48.967-2.22 2.333-2.22 4.097 0 1.821.683 3.215 2.049 4.183 1.366.91 3.215 1.366 5.549 1.366 4.211 0 7.426-1.452 9.646-4.354zM322.318 332.77v27.145h-12.036v-42.596h12.036v5.122c3.813-4.154 8.565-6.231 14.255-6.231 4.894 0 8.707 1.565 11.439 4.695 2.731 3.073 4.097 7.369 4.097 12.889v26.121h-12.036V336.27c0-3.073-.768-5.349-2.305-6.829-1.479-1.48-3.414-2.219-5.804-2.219-1.821 0-3.642.54-5.463 1.621-1.765 1.025-3.159 2.334-4.183 3.927zM375.086 332.77v27.145H363.05v-42.596h12.036v5.122c3.813-4.154 8.564-6.231 14.255-6.231 4.894 0 8.707 1.565 11.439 4.695 2.731 3.073 4.097 7.369 4.097 12.889v26.121h-12.036V336.27c0-3.073-.768-5.349-2.305-6.829-1.479-1.48-3.414-2.219-5.804-2.219-1.821 0-3.642.54-5.463 1.621-1.765 1.025-3.159 2.334-4.183 3.927zM428.451 359.915h-12.036v-42.596h12.036v42.596zm-13.231-53.863c0-2.049.683-3.756 2.049-5.122 1.422-1.423 3.13-2.134 5.122-2.134 1.991 0 3.67.711 5.036 2.134 1.423 1.366 2.134 3.073 2.134 5.122 0 1.991-.711 3.699-2.134 5.121-1.366 1.366-3.045 2.049-5.036 2.049-1.992 0-3.7-.683-5.122-2.049-1.366-1.422-2.049-3.13-2.049-5.121zM267.565 168.46c0 21.888-17.744 39.632-39.633 39.632-21.888 0-39.632-17.744-39.632-39.632 0-21.889 17.744-39.633 39.632-39.633v-21.34c-33.674 0-60.973 27.298-60.973 60.973 0 33.674 27.299 60.973 60.973 60.973 14.819 0 28.402-5.286 38.968-14.076-3.412 18.419-19.561 32.368-38.968 32.368-9.325 0-17.899-3.221-24.668-8.611l-16.696 13.774c10.869 10.042 25.4 16.177 41.364 16.177 31.508 0 57.433-23.898 60.64-54.556 10.702 9.296 24.677 14.924 39.966 14.924v-21.341c-21.888 0-39.633-17.744-39.633-39.632v-39.633h39.633v-21.34h-39.633V97.426c0-11.281-9.145-20.426-20.426-20.426-.306 0-.611.0068-.914.0201V168.46z"/>
</svg>
