<svg xmlns="http://www.w3.org/2000/svg" fill="#B6BCC9" viewBox="0 0 1000 500">
  <path d="M241.484 243.571c0 30.771-24.954 55.715-55.736 55.715-30.782 0-55.736-24.944-55.736-55.715 0-30.77 24.954-55.714 55.736-55.714v-30c-47.357 0-85.748 38.376-85.748 85.714 0 47.339 38.391 85.715 85.748 85.715 20.839 0 39.942-7.431 54.802-19.787C235.751 335.391 213.04 355 185.748 355c-13.115 0-25.172-4.528-34.691-12.105l-23.481 19.364C142.861 376.375 163.297 385 185.748 385c44.31 0 80.77-33.595 85.279-76.694 15.051 13.069 34.704 20.98 56.206 20.98v-30c-30.783 0-55.737-24.944-55.737-55.715v-55.714h55.737v-30h-55.737v-13.714h-.003c.002-.143.003-.286.003-.429 0-15.858-12.861-28.714-28.725-28.714-.431 0-.86.009-1.287.028v128.543ZM477.261 242.714h16.927v-59.88h-16.927v59.88ZM478.462 159.794c-1.921 1.92-2.881 4.32-2.881 7.2 0 2.8.96 5.2 2.881 7.2 2 1.92 4.401 2.88 7.203 2.88 2.801 0 5.162-.96 7.082-2.88 2.001-2 3.002-4.4 3.002-7.2 0-2.88-1.001-5.28-3.002-7.2-1.92-2-4.281-3-7.082-3-2.802 0-5.203 1-7.203 3ZM395.317 232.154c8.483 8.16 19.127 12.24 31.932 12.24 6.963 0 13.566-1.28 19.808-3.84 6.002-2.48 10.804-5.64 14.406-9.48v-37.08h-17.287v28.92c-3.922 3.68-9.564 5.52-16.927 5.52-7.683 0-14.125-2.48-19.327-7.44-5.202-4.96-7.803-11.6-7.803-19.92 0-8.4 2.681-15.12 8.043-20.16 5.362-5.12 12.325-7.68 20.888-7.68 8.243 0 16.246 2.4 24.009 7.2v-17.04c-7.122-4.24-15.526-6.36-25.21-6.36-13.205 0-24.049 4.08-32.532 12.24-8.564 8.16-12.845 18.64-12.845 31.44 0 12.64 4.281 23.12 12.845 31.44Z"/>
  <path d="M507.629 212.714c0-8.88 3.122-16.32 9.364-22.32 6.163-6.08 14.126-9.12 23.89-9.12 9.763 0 17.727 3.04 23.889 9.12 6.242 6.08 9.364 13.52 9.364 22.32 0 8.96-3.122 16.48-9.364 22.56-6.242 6-14.206 9-23.889 9-9.684 0-17.647-3-23.89-9-6.242-6.08-9.364-13.6-9.364-22.56Zm16.687 0c0 4.8 1.561 8.8 4.682 12 3.121 3.2 7.083 4.8 11.885 4.8 4.801 0 8.763-1.6 11.884-4.8 3.122-3.28 4.682-7.28 4.682-12 0-4.8-1.56-8.76-4.682-11.88-3.121-3.2-7.083-4.8-11.884-4.8-4.802 0-8.764 1.6-11.885 4.8-3.121 3.12-4.682 7.08-4.682 11.88Z"/>
  <path d="M603.604 243.194h15.366l26.05-60.36h-17.647l-15.726 38.88-15.846-38.88h-18.248l26.051 60.36Z"/>
  <path d="M710.818 229.634c1.441 0 2.601-.24 3.481-.72v12.36c-2.16 1.68-5.202 2.52-9.123 2.52-6.803 0-11.325-2.56-13.565-7.68-5.283 5.44-12.165 8.16-20.649 8.16-6.562 0-11.884-1.84-15.966-5.52-4.082-3.68-6.122-8.52-6.122-14.52 0-6.4 2.321-11.28 6.962-14.64 4.642-3.36 10.204-5.04 16.687-5.04 6.803 0 12.565 1.24 17.287 3.72v-1.8c0-7.52-5.282-11.28-15.846-11.28-6.483 0-12.525 1.68-18.128 5.04v-14.16c6.083-3.2 13.486-4.8 22.209-4.8 8.644 0 15.526 2.08 20.648 6.24 5.282 4.16 7.923 9.92 7.923 17.28v20.28c0 3.04 1.401 4.56 4.202 4.56Zm-21.008-4.56v-6c-3.522-2.32-7.683-3.48-12.485-3.48-3.601 0-6.483.68-8.643 2.04-2.081 1.36-3.122 3.28-3.122 5.76 0 2.56.961 4.52 2.881 5.88 1.921 1.28 4.522 1.92 7.804 1.92 5.922 0 10.444-2.04 13.565-6.12Z"/>
  <path d="M742.938 242.714v-38.16c1.441-2.24 3.402-4.08 5.883-5.52 2.561-1.52 5.122-2.28 7.683-2.28 3.361 0 6.082 1.04 8.163 3.12 2.161 2.08 3.241 5.28 3.241 9.6v33.24h16.927v-36.72c0-7.76-1.921-13.8-5.762-18.12-3.842-4.4-9.204-6.6-16.087-6.6-8.003 0-14.686 2.92-20.048 8.76v-7.2h-16.926v59.88h16.926ZM817.147 204.554v38.16h-16.926v-59.88h16.926v7.2c5.362-5.84 12.045-8.76 20.048-8.76 6.883 0 12.245 2.2 16.087 6.6 3.841 4.32 5.762 10.36 5.762 18.12v36.72h-16.927v-33.24c0-4.32-1.08-7.52-3.241-9.6-2.081-2.08-4.802-3.12-8.163-3.12-2.561 0-5.122.76-7.683 2.28-2.481 1.44-4.442 3.28-5.883 5.52ZM875.27 242.714h16.927v-59.88H875.27v59.88ZM876.47 159.794c-1.92 1.92-2.881 4.32-2.881 7.2 0 2.8.961 5.2 2.881 7.2 2.001 1.92 4.402 2.88 7.203 2.88s5.162-.96 7.083-2.88c2.001-2 3.001-4.4 3.001-7.2 0-2.88-1-5.28-3.001-7.2-1.921-2-4.282-3-7.083-3s-5.202 1-7.203 3ZM420.801 329.286h-7.614v-65.109h-24.799v-6.891h57.52v6.891h-25.107v65.109ZM457.108 329.286h-7.409v-49.68h7.409v9.463c1.852-3.223 4.596-5.795 8.232-7.715 3.635-1.988 7.477-2.983 11.524-2.983v7.509c-2.264 0-4.322.309-6.174.926-3.155.823-5.933 2.263-8.334 4.32-2.401 1.988-4.151 4.251-5.248 6.788v31.372Z"/>
  <path d="M490.924 326.2c3.705 2.88 8.198 4.32 13.48 4.32 8.369 0 15.057-2.914 20.065-8.743.411 2.606 1.44 4.594 3.087 5.966 1.715 1.303 3.807 1.954 6.277 1.954 2.195 0 3.841-.377 4.939-1.131v-5.76c-.824.411-1.784.617-2.881.617-1.441 0-2.607-.549-3.499-1.646-.823-1.097-1.235-2.606-1.235-4.526v-20.468c0-5.897-2.023-10.423-6.071-13.577-3.978-3.223-9.363-4.835-16.155-4.835-6.997 0-12.931 1.509-17.801 4.526v7.2c5.008-3.36 10.427-5.04 16.258-5.04 10.907 0 16.361 4.149 16.361 12.446v4.937c-5.488-3.223-11.456-4.834-17.905-4.834-5.899 0-10.77 1.474-14.611 4.423-3.842 3.017-5.762 7.028-5.762 12.034 0 5.074 1.817 9.12 5.453 12.137Zm25.313-4.731c-3.087 1.577-6.345 2.365-9.775 2.365-3.979 0-7.237-.891-9.776-2.674-2.538-1.783-3.807-4.286-3.807-7.509 0-3.085 1.304-5.52 3.91-7.302 2.676-1.783 6.277-2.675 10.805-2.675 5.693 0 11.078 1.646 16.155 4.937v6.892c-1.921 2.4-4.425 4.388-7.512 5.966Z"/>
  <path d="M560.2 329.286h-7.408v-49.68h7.408v7.405c4.116-5.76 10.084-8.64 17.904-8.64 4.048 0 7.443.858 10.187 2.572 2.813 1.714 4.734 4.114 5.762 7.2 1.921-2.949 4.528-5.314 7.821-7.097 3.361-1.783 7.134-2.675 11.319-2.675 5.556 0 9.878 1.749 12.965 5.246 3.087 3.429 4.63 8.332 4.63 14.709v30.96h-7.409v-29.315c0-9.737-4.116-14.605-12.347-14.605-3.019 0-6.037 1.063-9.055 3.188-2.95 2.057-5.18 4.56-6.689 7.509v2.366c.069.891.103 1.577.103 2.057.069.48.103.857.103 1.131v27.669h-7.409v-29.315c0-9.737-4.115-14.605-12.347-14.605-2.881 0-5.831 1.028-8.849 3.085-2.882 1.92-5.111 4.32-6.689 7.2v33.635ZM687.325 279.606v33.531c-1.578 2.674-4.048 5.109-7.409 7.303-3.156 2.057-6.448 3.086-9.878 3.086-9.398 0-14.097-5.109-14.097-15.326v-28.594h-7.409v30.24c0 6.583 1.612 11.691 4.836 15.325 3.293 3.566 7.992 5.349 14.097 5.349 7.958 0 14.578-2.949 19.86-8.846v7.612h7.408v-49.68h-7.408ZM727.437 330.52c-4.596 0-8.094-1.371-10.495-4.114-2.333-2.743-3.499-6.48-3.499-11.212V264.28h7.409v15.326h17.389v6.48h-17.389v26.845c0 3.978.651 6.72 1.955 8.229 1.372 1.577 3.601 2.366 6.688 2.366 3.018 0 5.728-.686 8.129-2.057v6.788c-2.127 1.509-5.522 2.263-10.187 2.263Z"/>
  <path d="M776.205 278.371c-7.889 0-14.337 2.572-19.345 7.715-5.007 5.005-7.511 11.143-7.511 18.411 0 7.269 2.504 13.406 7.511 18.412 5.077 5.074 11.525 7.611 19.345 7.611 7.82 0 14.269-2.537 19.345-7.611 5.008-5.006 7.511-11.143 7.511-18.412 0-7.268-2.503-13.406-7.511-18.411-5.008-5.143-11.456-7.715-19.345-7.715Zm13.788 12.24c3.636 3.772 5.454 8.4 5.454 13.886 0 5.417-1.818 10.012-5.454 13.783-3.635 3.703-8.231 5.554-13.788 5.554-5.556 0-10.152-1.851-13.788-5.554-3.636-3.771-5.454-8.366-5.454-13.783 0-5.486 1.818-10.114 5.454-13.886 3.636-3.702 8.232-5.554 13.788-5.554 5.557 0 10.153 1.852 13.788 5.554Z"/>
  <path d="M830.288 330.52c-3.43 0-6.209-.994-8.335-2.983-2.058-1.988-3.087-5.074-3.087-9.257v-60.994h7.408v59.245c0 4.869 2.161 7.303 6.483 7.303 1.715 0 3.327-.445 4.836-1.337v6.583c-1.783.96-4.219 1.44-7.305 1.44Z"/>
  <path d="M852.152 326.2c3.705 2.88 8.198 4.32 13.48 4.32 8.369 0 15.057-2.914 20.065-8.743.412 2.606 1.441 4.594 3.087 5.966 1.715 1.303 3.807 1.954 6.277 1.954 2.195 0 3.841-.377 4.939-1.131v-5.76c-.823.411-1.784.617-2.881.617-1.441 0-2.607-.549-3.499-1.646-.823-1.097-1.235-2.606-1.235-4.526v-20.468c0-5.897-2.023-10.423-6.07-13.577-3.979-3.223-9.364-4.835-16.155-4.835-6.997 0-12.931 1.509-17.802 4.526v7.2c5.008-3.36 10.427-5.04 16.258-5.04 10.907 0 16.361 4.149 16.361 12.446v4.937c-5.488-3.223-11.456-4.834-17.904-4.834-5.9 0-10.77 1.474-14.612 4.423-3.841 3.017-5.762 7.028-5.762 12.034 0 5.074 1.818 9.12 5.453 12.137Zm25.313-4.731c-3.087 1.577-6.345 2.365-9.775 2.365-3.979 0-7.237-.891-9.775-2.674-2.538-1.783-3.808-4.286-3.808-7.509 0-3.085 1.304-5.52 3.911-7.302 2.675-1.783 6.276-2.675 10.804-2.675 5.694 0 11.079 1.646 16.155 4.937v6.892c-1.921 2.4-4.425 4.388-7.512 5.966Z"/>
</svg>
