<svg xmlns="http://www.w3.org/2000/svg" fill="#2B4780" viewBox="0 0 500 500">
  <path d="M500 0H0v500h500V0ZM217.623 307.317c35.763 0 64.754-29.009 64.754-64.793V93.0329c.496-.0219.994-.0329 1.495-.0329 18.431 0 33.373 14.951 33.373 33.394 0 .166-.001.332-.003.498h.003v15.949H382v34.889h-64.755v64.794c0 35.784 28.992 64.793 64.755 64.793v34.889c-24.981 0-47.814-9.2-65.3-24.398C311.461 367.93 269.102 407 217.623 407c-26.084 0-49.827-10.031-67.585-26.447l27.28-22.52c11.06 8.812 25.068 14.078 40.305 14.078 31.708 0 58.093-22.804 63.669-52.916-17.264 14.369-39.458 23.011-63.669 23.011-55.02 0-99.623-44.629-99.623-99.682 0-55.053 44.603-99.683 99.623-99.683v34.889c-35.763 0-64.755 29.009-64.755 64.794 0 35.784 28.992 64.793 64.755 64.793Z"/>
</svg>
