<svg xmlns="http://www.w3.org/2000/svg" fill="none" viewBox="0 0 500 500">
  <path fill="#0072ff" d="M285.566 242.286c0 39.317-31.847 71.19-71.132 71.19-39.285 0-71.132-31.873-71.132-71.19 0-39.318 31.847-71.191 71.132-71.191v-38.333C153.995 132.762 105 181.797 105 242.286c0 60.488 48.995 109.524 109.434 109.524 26.596 0 50.975-9.496 69.94-25.284-6.125 33.085-35.109 58.141-69.94 58.141-16.738 0-32.125-5.786-44.274-15.468l-29.967 24.743C159.7 411.979 185.781 423 214.434 423c56.549 0 103.08-42.927 108.835-97.998 19.208 16.699 44.29 26.808 71.731 26.808v-38.334c-39.285 0-71.132-31.873-71.132-71.19v-71.191H395v-38.333h-71.132c-.001-6.024 0-12.048 0-18.072 0-20.2631-16.414-36.69-36.66-36.69-.551 0-1.098.0121-1.642.0361V242.286z"/>
</svg>
