<svg xmlns="http://www.w3.org/2000/svg" fill="#B6BCC9" viewBox="0 0 500 500">
  <path d="M282.377 242.524c0 35.784-28.991 64.793-64.754 64.793-35.763 0-64.755-29.009-64.755-64.793 0-35.785 28.992-64.794 64.755-64.794v-34.889c-55.02 0-99.623 44.63-99.623 99.683 0 55.053 44.603 99.682 99.623 99.682 24.211 0 46.405-8.642 63.669-23.011-5.576 30.112-31.961 52.916-63.669 52.916-15.237 0-29.245-5.266-40.305-14.078l-27.28 22.52C167.796 396.969 191.539 407 217.623 407c51.479 0 93.838-39.07 99.077-89.192 17.486 15.198 40.319 24.398 65.3 24.398v-34.889c-35.763 0-64.755-29.009-64.755-64.793V177.73H382v-34.889h-64.755v-15.949h-.003c.002-.166.003-.332.003-.498 0-18.443-14.942-33.394-33.373-33.394-.501 0-.999.011-1.495.0329V242.524Z"/>
</svg>
