<svg xmlns="http://www.w3.org/2000/svg" viewBox="0 0 1264 400">
  <metadata>
    Copyright 2022–Today (c) Giovanni Tramutola (https://github.com/giotramu). All rights reserved.
  </metadata>
  <g id="monogram">
    <rect fill="#4169E1" width="400" height="400"/>
    <path fill="#F8F8FF" fill-rule="evenodd" clip-rule="evenodd" d="M234 96H165V96.0049C110.232 96.5414 66 141.105 66 196C66 251.228 110.772 296 166 296C191.905 296 215.509 286.15 233.271 269.991C228.439 302.81 200.161 328 166 328C150.182 328 135.626 322.599 124.074 313.541L98.6268 333.898C116.401 350.112 140.046 360 166 360C218.211 360 261.076 319.987 265.605 268.953C283.489 285.727 307.545 296 334 296V264C297.787 264 268.186 235.694 266.116 200H266V128H334V96H266V68C266 52.536 253.464 40 238 40C236.642 40 235.306 40.0967 234 40.2836V96ZM234 128H165.944C128.414 128.03 98 158.463 98 196C98 233.555 128.445 264 166 264C202.213 264 231.814 235.694 233.884 200H234V128Z"/>
  </g>
  <g id="logotype" fill="#313133">
    <g id="giovanni">
      <path d="M535.794 106.056V129.724H576.922C572.072 145.826 558.104 155.526 537.346 155.526C523.378 155.526 512.126 151.452 503.59 143.11C495.248 134.768 490.98 124.098 490.98 111.294C490.98 98.296 495.054 87.626 503.396 79.284C511.738 70.748 522.408 66.48 535.406 66.48C551.508 66.48 565.476 74.24 571.878 85.298L594.77 72.106C583.13 52.9 561.014 40.484 535.6 40.484C515.424 40.484 498.546 47.274 484.772 61.048C471.192 74.822 464.402 91.506 464.402 111.294C464.402 130.888 471.192 147.572 484.966 161.346C498.74 174.926 516.2 181.716 537.152 181.716C556.746 181.716 572.848 175.702 585.264 163.674C597.68 151.646 603.888 135.932 603.888 116.532V106.056H535.794Z"/>
      <path d="M635.579 70.36C644.115 70.36 651.099 63.376 651.099 55.034C651.099 46.692 644.115 39.514 635.579 39.514C627.237 39.514 620.253 46.692 620.253 55.034C620.253 63.376 627.237 70.36 635.579 70.36ZM648.189 179V82H623.163V179H648.189Z"/>
      <path d="M755.136 166.972C765.03 157.078 770.074 144.856 770.074 130.5C770.074 116.144 765.03 104.116 755.136 94.222C745.242 84.328 733.02 79.284 718.664 79.284C704.308 79.284 692.086 84.328 682.192 94.222C672.298 104.116 667.448 116.144 667.448 130.5C667.448 144.856 672.298 157.078 682.192 166.972C692.086 176.866 704.308 181.716 718.664 181.716C733.02 181.716 745.242 176.866 755.136 166.972ZM699.846 149.706C694.996 144.662 692.474 138.26 692.474 130.5C692.474 122.74 694.996 116.338 699.846 111.294C704.89 106.25 711.098 103.728 718.664 103.728C726.23 103.728 732.438 106.25 737.482 111.294C742.526 116.338 745.048 122.74 745.048 130.5C745.048 138.26 742.526 144.662 737.482 149.706C732.438 154.75 726.23 157.272 718.664 157.272C711.098 157.272 704.89 154.75 699.846 149.706Z"/>
      <path d="M825.445 149.9L801.971 82H774.423L811.283 179H839.801L876.661 82H849.113L825.445 149.9Z"/>
      <path d="M960.056 93.446C952.49 83.94 942.014 79.284 928.434 79.284C915.436 79.284 904.378 84.328 895.066 94.222C885.948 104.116 881.292 116.144 881.292 130.5C881.292 144.856 885.948 157.078 895.066 166.972C904.378 176.866 915.436 181.716 928.434 181.716C942.014 181.716 952.49 177.06 960.056 167.554V179H985.082V82H960.056V93.446ZM913.884 150.288C908.84 145.05 906.318 138.454 906.318 130.5C906.318 122.546 908.84 115.95 913.884 110.906C918.928 105.668 925.33 103.146 933.09 103.146C940.85 103.146 947.252 105.668 952.296 110.906C957.534 115.95 960.056 122.546 960.056 130.5C960.056 138.454 957.534 145.05 952.296 150.288C947.252 155.332 940.85 157.854 933.09 157.854C925.33 157.854 918.928 155.332 913.884 150.288Z"/>
      <path d="M1063.1 79.284C1049.91 79.284 1040.21 83.746 1034.2 92.864V82H1009.17V179H1034.2V126.62C1034.2 110.518 1042.54 102.564 1055.54 102.564C1067.18 102.564 1074.74 109.548 1074.74 122.546V179H1099.77V119.442C1099.77 106.832 1096.28 97.132 1089.29 89.954C1082.5 82.776 1073.77 79.284 1063.1 79.284Z"/>
      <path d="M1176.47 79.284C1163.28 79.284 1153.58 83.746 1147.56 92.864V82H1122.54V179H1147.56V126.62C1147.56 110.518 1155.9 102.564 1168.9 102.564C1180.54 102.564 1188.11 109.548 1188.11 122.546V179H1213.13V119.442C1213.13 106.832 1209.64 97.132 1202.66 89.954C1195.87 82.776 1187.14 79.284 1176.47 79.284Z"/>
      <path d="M1248.32 70.36C1256.85 70.36 1263.84 63.376 1263.84 55.034C1263.84 46.692 1256.85 39.514 1248.32 39.514C1239.97 39.514 1232.99 46.692 1232.99 55.034C1232.99 63.376 1239.97 70.36 1248.32 70.36ZM1260.93 179V82H1235.9V179H1260.93Z"/>
    </g>
    <g id="tramutola">
      <path d="M464.168 235.8V251.288H500.424V359H516.616V251.288H553.048V235.8H464.168Z"/>
      <path d="M570.944 271H555.632V359H570.944V312.36C570.944 302.68 573.584 295.816 579.04 291.416C584.496 287.016 590.832 285.08 598.4 285.432V269.416C585.2 269.416 576.048 274.872 570.944 285.784V271Z"/>
      <path d="M681.433 286.136C673.865 274.52 662.777 268.712 648.169 268.712C635.849 268.712 625.289 273.288 616.665 282.264C608.041 291.24 603.641 302.152 603.641 315C603.641 327.848 608.041 338.936 616.665 347.912C625.289 356.888 635.849 361.288 648.169 361.288C662.777 361.288 673.865 355.48 681.433 343.864V359H696.745V271H681.433V286.136ZM650.105 346.504C641.305 346.504 633.913 343.512 627.929 337.528C621.945 331.368 618.953 323.976 618.953 315C618.953 306.024 621.945 298.632 627.929 292.648C633.913 286.488 641.305 283.496 650.105 283.496C659.081 283.496 666.473 286.488 672.457 292.648C678.441 298.632 681.433 306.024 681.433 315C681.433 323.976 678.441 331.368 672.457 337.528C666.473 343.512 659.081 346.504 650.105 346.504Z"/>
      <path d="M814.984 268.712C802.664 268.712 793.512 273.64 787.352 283.672C781.896 273.64 773.272 268.712 761.48 268.712C750.04 268.712 741.24 273.464 735.256 282.792V271H719.944V359H735.256V310.072C735.256 292.296 744.936 283.32 757.784 283.32C769.224 283.32 776.44 291.24 776.44 304.792V359H791.752V310.072C791.752 291.944 800.2 283.32 813.4 283.32C825.192 283.32 832.76 291.24 832.76 304.792V359H848.072V304.264C848.072 282.44 834.696 268.712 814.984 268.712Z"/>
      <path d="M930.023 317.64C930.023 337.352 919.815 346.68 904.503 346.68C890.951 346.68 882.679 338.408 882.679 324.152V271H867.367V325.032C867.367 347.384 880.919 361.288 901.511 361.288C914.359 361.288 923.863 356.36 930.023 346.328V359H945.335V271H930.023V317.64Z"/>
      <path d="M1016.52 271H993.111V246.36L977.799 250.936V271H960.375V285.784H977.799V333.48C977.799 355.304 989.767 362.52 1016.52 359V345.272C1000.86 345.976 993.111 347.032 993.111 333.48V285.784H1016.52V271Z"/>
      <path d="M1104.45 347.912C1113.43 338.936 1118 328.024 1118 315C1118 301.976 1113.43 291.064 1104.45 282.088C1095.47 273.112 1084.39 268.712 1071.54 268.712C1058.69 268.712 1047.6 273.112 1038.63 282.088C1029.65 291.064 1025.25 301.976 1025.25 315C1025.25 328.024 1029.65 338.936 1038.63 347.912C1047.6 356.888 1058.69 361.288 1071.54 361.288C1084.39 361.288 1095.47 356.888 1104.45 347.912ZM1071.54 346.328C1062.91 346.328 1055.52 343.336 1049.54 337.352C1043.55 331.368 1040.56 323.976 1040.56 315C1040.56 306.024 1043.55 298.632 1049.54 292.648C1055.52 286.664 1062.91 283.672 1071.54 283.672C1080.34 283.672 1087.73 286.664 1093.71 292.648C1099.7 298.632 1102.69 306.024 1102.69 315C1102.69 323.976 1099.7 331.368 1093.71 337.352C1087.73 343.336 1080.34 346.328 1071.54 346.328Z"/>
      <path d="M1151.37 359V230.52H1136.05V359H1151.37Z"/>
      <path d="M1247.59 286.136C1240.02 274.52 1228.93 268.712 1214.33 268.712C1202.01 268.712 1191.45 273.288 1182.82 282.264C1174.2 291.24 1169.8 302.152 1169.8 315C1169.8 327.848 1174.2 338.936 1182.82 347.912C1191.45 356.888 1202.01 361.288 1214.33 361.288C1228.93 361.288 1240.02 355.48 1247.59 343.864V359H1262.9V271H1247.59V286.136ZM1216.26 346.504C1207.46 346.504 1200.07 343.512 1194.09 337.528C1188.1 331.368 1185.11 323.976 1185.11 315C1185.11 306.024 1188.1 298.632 1194.09 292.648C1200.07 286.488 1207.46 283.496 1216.26 283.496C1225.24 283.496 1232.63 286.488 1238.61 292.648C1244.6 298.632 1247.59 306.024 1247.59 315C1247.59 323.976 1244.6 331.368 1238.61 337.528C1232.63 343.512 1225.24 346.504 1216.26 346.504Z"/>
    </g>
  </g>
</svg>
