<svg xmlns="http://www.w3.org/2000/svg" viewBox="0 0 400 400">
  <metadata>
    Copyright 2022–Today (c) Giovanni Tramutola (https://github.com/giotramu). All rights reserved.
  </metadata>
  <path id="monogram" fill="#FFF" fill-rule="evenodd" clip-rule="evenodd" d="M400 0H0v400h400V0ZM165 96h69V40.2836c1.306-.1869 2.642-.2836 4-.2836 15.464 0 28 12.536 28 28v28h68v32h-68v72h.116c2.07 35.694 31.671 64 67.884 64v32c-26.455 0-50.511-10.273-68.395-27.047C261.076 319.987 218.211 360 166 360c-25.954 0-49.599-9.888-67.3732-26.102l25.4472-20.357C135.626 322.599 150.182 328 166 328c34.161 0 62.439-25.19 67.271-58.009C215.509 286.15 191.905 296 166 296c-55.228 0-100-44.772-100-100 0-54.895 44.232-99.4586 99-99.9951V96Zm.944 32H234v72h-.116c-2.07 35.694-31.671 64-67.884 64-37.555 0-68-30.445-68-68 0-37.537 30.414-67.97 67.944-68Z"/>
</svg>
