<svg xmlns="http://www.w3.org/2000/svg" viewBox="0 0 400 400">
  <metadata>
    Copyright 2022–Today (c) Giovanni Tramutola (https://github.com/giotramu). All rights reserved.
  </metadata>
  <g id="monogram">
    <path fill="#4169E1" d="M0 0h400v400H0z"/>
    <path fill="#F8F8FF" fill-rule="evenodd" clip-rule="evenodd" d="M234 96h-69v.0049C110.232 96.5414 66 141.105 66 196c0 55.228 44.772 100 100 100 25.905 0 49.509-9.85 67.271-26.009C228.439 302.81 200.161 328 166 328c-15.818 0-30.374-5.401-41.926-14.459l-25.4472 20.357C116.401 350.112 140.046 360 166 360c52.211 0 95.076-40.013 99.605-91.047C283.489 285.727 307.545 296 334 296v-32c-36.213 0-65.814-28.306-67.884-64H266v-72h68V96h-68V68c0-15.464-12.536-28-28-28-1.358 0-2.694.0967-4 .2836V96Zm0 32h-68.056C128.414 128.03 98 158.463 98 196c0 37.555 30.445 68 68 68 36.213 0 65.814-28.306 67.884-64H234v-72Z"/>
  </g>
</svg>
